<?xml version="1.0" standalone="no"?>
<!DOCTYPE svg PUBLIC "-//W3C//DTD SVG 20010904//EN"
 "http://www.w3.org/TR/2001/REC-SVG-20010904/DTD/svg10.dtd">
<svg version="1.0" xmlns="http://www.w3.org/2000/svg"
 width="677.000000pt" height="677.000000pt" viewBox="0 0 677.000000 677.000000"
 preserveAspectRatio="xMidYMid meet">
<metadata>
Created by potrace 1.11, written by Peter Selinger 2001-2013
</metadata>
<g transform="translate(0.000000,677.000000) scale(0.100000,-0.100000)"
fill="#000000" stroke="none">
<path d="M3815 6661 c-3 -5 -2 -12 3 -15 5 -3 9 1 9 9 0 17 -3 19 -12 6z"/>
<path d="M3855 6650 c-3 -5 -3 -10 2 -11 4 0 -1 -5 -12 -10 -19 -8 -19 -9 -1
-6 11 1 20 10 22 20 3 19 -2 22 -11 7z"/>
<path d="M4065 6634 c-11 -13 -24 -19 -28 -15 -9 9 -47 3 -47 -8 0 -3 18 -6
40 -6 21 -1 37 1 35 4 -3 2 2 13 12 23 9 10 14 20 12 22 -2 2 -13 -7 -24 -20z"/>
<path d="M3950 6641 c0 -6 5 -11 11 -11 5 0 7 -5 3 -12 -5 -7 -11 -5 -21 7 -7
11 -13 14 -13 8 0 -6 -11 -10 -25 -9 -14 2 -30 -2 -35 -9 -13 -16 -38 -13 -52
6 -8 11 -9 11 -5 -3 3 -9 -1 -22 -8 -28 -8 -7 -12 -17 -8 -23 3 -6 1 -7 -5 -3
-7 4 -12 1 -12 -6 0 -10 -3 -9 -11 2 -8 11 -12 12 -16 3 -2 -7 -9 -13 -14 -13
-6 0 -7 5 -3 11 4 7 1 10 -7 7 -8 -3 -13 -14 -11 -24 2 -17 2 -17 -8 -2 -6 10
-17 15 -26 11 -13 -5 -12 -7 2 -18 15 -10 14 -12 -7 -10 -13 1 -23 8 -21 14 1
6 -5 11 -14 11 -8 0 -13 4 -9 9 3 5 0 13 -6 17 -7 4 -9 3 -5 -4 3 -6 -3 -17
-15 -25 -13 -9 -16 -17 -10 -22 6 -3 11 -1 11 6 0 7 2 10 5 7 9 -9 -6 -36 -22
-42 -13 -5 -14 -4 -3 9 15 18 1 19 -22 1 -13 -10 -15 -15 -6 -24 7 -7 8 -12 2
-12 -5 0 -15 9 -22 21 -10 15 -10 19 -1 14 7 -5 10 -4 6 2 -4 6 1 10 10 9 9 0
18 5 20 12 3 6 0 12 -7 12 -6 0 -8 -5 -4 -12 5 -7 2 -9 -8 -5 -9 3 -21 0 -28
-6 -10 -9 -11 -7 -6 13 6 21 5 22 -4 7 -9 -13 -9 -22 0 -32 7 -9 8 -15 1 -19
-6 -4 -8 -14 -5 -24 5 -15 4 -15 -6 1 -14 21 -31 13 -24 -11 5 -14 4 -15 -5
-2 -9 12 -11 12 -11 1 0 -8 -10 -3 -25 13 -14 15 -23 31 -20 36 3 5 1 11 -4
15 -6 3 -8 -4 -5 -17 3 -13 6 -32 5 -43 0 -14 2 -16 8 -6 5 8 11 9 15 3 11
-18 -21 -21 -44 -5 -21 15 -24 15 -35 0 -7 -9 -16 -13 -20 -9 -5 4 -5 2 -2 -4
4 -7 -1 -18 -10 -25 -15 -12 -16 -12 -10 4 4 11 3 16 -3 12 -6 -3 -10 -13 -10
-21 0 -8 -3 -13 -7 -12 -5 2 -9 -1 -10 -6 -2 -10 -24 -26 -37 -26 -5 0 -2 8 5
18 13 15 12 16 -4 3 -16 -13 -16 -15 -1 -32 9 -10 21 -16 27 -12 6 3 7 1 3 -6
-6 -9 -11 -9 -21 -1 -7 6 -20 8 -29 4 -9 -3 -16 -1 -16 6 0 6 5 8 12 4 7 -4 8
-3 4 4 -9 15 -8 16 -30 -10 -15 -18 -16 -20 -2 -15 9 4 16 2 16 -2 0 -5 8 -8
18 -6 9 1 11 0 4 -2 -11 -4 -11 -8 0 -21 11 -15 10 -14 -8 1 -25 21 -35 22
-28 2 4 -8 1 -15 -6 -15 -6 0 -9 4 -5 9 3 5 1 12 -5 16 -5 3 -10 -1 -10 -9 0
-9 -5 -16 -11 -16 -6 0 -9 7 -5 15 3 8 1 15 -5 15 -6 0 -9 -10 -7 -22 2 -14
10 -23 19 -22 9 1 16 -5 16 -12 0 -9 -5 -10 -18 -3 -22 11 -32 12 -25 0 3 -5
-1 -12 -10 -15 -24 -9 -27 -7 -10 10 12 12 13 20 6 35 -6 10 -13 19 -16 19 -2
0 0 -9 5 -19 13 -24 -15 -54 -28 -32 -11 18 -24 -13 -25 -61 -1 -20 -5 -40
-10 -45 -5 -4 -6 -3 -2 5 5 8 1 11 -14 9 -25 -4 -42 -26 -32 -42 3 -5 -2 -4
-10 3 -16 13 -14 47 2 37 4 -3 13 2 20 10 6 7 19 11 27 8 10 -4 14 -2 10 4 -4
6 -19 10 -34 10 -16 0 -22 -2 -15 -4 6 -3 9 -9 6 -14 -3 -6 -11 -6 -20 2 -7 6
-11 16 -7 22 4 6 1 7 -6 2 -9 -5 -9 -11 -3 -17 7 -7 7 -16 -1 -28 -8 -14 -8
-22 2 -34 11 -13 11 -17 -3 -22 -9 -4 -20 -4 -23 0 -4 3 2 6 12 6 10 0 15 3
11 8 -7 7 -11 8 -37 11 -5 0 -8 5 -5 10 3 5 -1 12 -9 15 -13 4 -13 2 -5 -14 6
-11 6 -21 1 -24 -5 -4 -11 0 -14 6 -3 8 -9 3 -15 -12 -9 -22 -11 -23 -17 -7
-6 15 -9 16 -19 2 -6 -8 -20 -16 -31 -18 -11 -1 -29 -8 -40 -14 -17 -10 -18
-14 -6 -25 11 -10 12 -10 7 0 -4 7 -4 11 1 10 4 -1 18 3 29 10 12 6 24 8 28 5
3 -3 6 -1 6 5 0 6 9 9 20 7 11 -2 24 3 30 13 5 9 10 13 10 8 0 -5 7 -3 15 4
13 11 14 10 9 -4 -3 -9 -13 -16 -21 -16 -8 0 -12 -4 -8 -9 3 -6 -4 -8 -16 -6
-15 3 -19 0 -15 -11 4 -10 2 -13 -7 -7 -18 11 -37 12 -37 2 0 -5 6 -9 13 -9 8
0 7 -3 -3 -10 -9 -5 -19 -5 -26 0 -6 6 -14 7 -17 3 -4 -3 0 -11 9 -17 13 -10
13 -12 -5 -12 -11 0 -18 3 -15 7 4 7 -22 22 -41 24 -5 0 -17 5 -25 9 -9 6 -8
1 4 -12 15 -18 16 -24 6 -37 -8 -10 -9 -15 -1 -15 6 0 11 -5 11 -11 0 -8 -4
-8 -14 0 -10 8 -16 9 -21 1 -3 -5 -1 -10 6 -10 7 0 10 -3 6 -6 -3 -3 -16 2
-29 11 -16 12 -17 16 -5 11 12 -4 16 -2 11 6 -4 6 -3 8 3 5 6 -4 16 0 23 8 9
10 9 15 1 15 -6 0 -11 -5 -11 -12 0 -6 -3 -9 -6 -5 -4 3 -19 0 -34 -8 -15 -8
-31 -11 -35 -7 -5 4 -5 2 -2 -5 4 -6 2 -13 -5 -15 -8 -3 -6 -7 5 -11 10 -4 16
-2 14 5 -1 6 4 13 12 16 9 3 11 0 7 -7 -4 -7 -2 -10 5 -9 7 2 14 -5 15 -15 1
-12 0 -12 -3 -2 -3 11 -9 12 -23 5 -10 -5 -25 -7 -33 -4 -9 3 -16 -3 -20 -17
-5 -19 -8 -20 -21 -9 -19 15 -21 5 -4 -14 11 -11 14 -11 23 0 7 9 15 11 25 4
11 -7 11 -10 2 -10 -7 0 -11 -4 -8 -9 6 -10 -37 -6 -56 5 -7 4 -5 -2 5 -13 9
-11 17 -22 17 -25 0 -12 -30 -17 -36 -6 -4 6 -3 8 4 4 6 -3 13 -2 16 3 3 5 0
11 -8 14 -24 10 -26 -22 -3 -44 l22 -21 -22 11 c-14 7 -24 8 -28 1 -3 -5 -1
-10 4 -10 6 0 11 -5 11 -11 0 -8 -4 -8 -14 0 -9 7 -17 8 -20 2 -3 -5 0 -11 6
-14 10 -3 10 -7 1 -17 -6 -7 -9 -20 -6 -29 4 -13 3 -14 -5 -2 -9 12 -13 12
-26 2 -22 -18 -20 -37 2 -20 14 11 15 11 5 -1 -14 -15 -46 -24 -38 -10 7 11
-22 7 -32 -5 -4 -4 -2 -5 5 -1 7 4 12 1 12 -9 0 -10 -5 -13 -12 -9 -6 4 -8 3
-4 -4 3 -5 0 -12 -6 -15 -10 -3 -10 -8 1 -18 12 -12 13 -12 6 0 -6 10 -4 12 6
6 8 -5 11 -5 7 0 -9 10 10 35 26 35 6 0 4 -5 -4 -10 -13 -8 -13 -10 0 -10 10
0 7 -5 -8 -16 -12 -8 -19 -20 -16 -26 4 -5 -4 -5 -17 2 -19 10 -22 10 -12 0 6
-7 9 -20 5 -29 -5 -14 -4 -14 14 -1 19 14 19 14 0 -8 -11 -12 -14 -22 -8 -22
7 0 12 -5 12 -11 0 -8 -5 -8 -15 1 -8 7 -12 16 -9 21 3 5 0 9 -7 9 -9 0 -9 3
0 14 9 11 8 15 -4 20 -10 3 -13 11 -9 18 4 7 3 9 -1 5 -12 -10 -16 -39 -5 -32
5 3 8 -3 8 -12 -1 -31 6 -48 27 -60 25 -15 11 -17 -16 -2 -24 12 -53 -6 -45
-27 3 -8 -2 -17 -11 -22 -11 -6 -12 -11 -4 -16 6 -4 11 -1 11 6 0 9 3 9 10 -2
9 -13 10 -13 11 0 1 8 1 19 0 23 -1 5 4 5 10 1 8 -4 9 -3 5 5 -4 6 -12 9 -17
6 -5 -4 -9 -2 -9 4 0 18 20 23 26 7 3 -9 11 -13 17 -9 6 4 0 -9 -13 -27 -28
-40 -35 -64 -15 -56 9 3 12 0 9 -9 -3 -8 -9 -14 -12 -13 -19 2 -25 -3 -14 -11
11 -6 9 -9 -5 -13 -12 -3 -20 0 -20 8 0 8 3 14 7 14 4 0 7 6 7 14 0 7 -6 13
-13 12 -22 -3 -28 -15 -15 -29 8 -11 6 -18 -9 -32 -11 -10 -17 -21 -15 -26 3
-4 1 -10 -5 -14 -6 -4 -8 -11 -5 -16 4 -5 1 -9 -4 -9 -6 0 -9 -10 -8 -22 3
-14 12 -22 28 -25 20 -2 22 -1 9 10 -16 13 -19 25 -9 42 4 6 5 18 4 28 -2 9 1
15 6 11 5 -3 7 -10 4 -15 -4 -5 -1 -9 4 -9 6 0 11 -5 11 -11 0 -5 -4 -7 -10
-4 -5 3 -10 -3 -10 -15 0 -12 4 -19 9 -16 5 4 8 -2 7 -11 -2 -13 -12 -18 -34
-17 -17 0 -29 -3 -26 -7 2 -4 -1 -19 -7 -33 -10 -21 -15 -24 -28 -14 -14 10
-14 10 -3 -2 7 -8 17 -16 22 -16 6 -1 12 -3 15 -4 3 -1 10 -3 17 -4 6 0 13 -8
15 -16 3 -9 1 -11 -4 -5 -11 13 -56 18 -48 5 3 -6 12 -10 19 -10 7 0 21 -10
32 -22 l19 -23 -22 19 -23 19 0 -28 c0 -20 -4 -26 -15 -22 -8 4 -17 1 -21 -5
-4 -6 -3 -8 3 -5 6 4 16 0 23 -8 9 -11 17 -12 34 -4 19 9 19 9 4 -4 -10 -8
-15 -17 -11 -21 4 -3 8 -23 9 -44 0 -20 -1 -31 -3 -24 -3 6 -8 10 -12 8 -4 -3
-8 1 -8 9 0 8 4 15 9 15 5 0 6 5 2 11 -4 8 -9 7 -15 -2 -6 -10 -9 -10 -9 -2 0
6 5 15 10 18 16 10 1 25 -17 18 -10 -4 -14 -2 -10 4 8 13 -18 11 -30 -1 -4 -4
-1 -6 7 -4 8 1 14 -2 13 -9 -2 -7 4 -10 12 -7 11 5 13 2 9 -10 -3 -9 -10 -13
-15 -10 -5 3 -6 -3 -2 -12 4 -11 8 -13 11 -6 2 7 8 9 13 6 6 -3 5 -12 -3 -22
-10 -12 -10 -14 0 -8 6 4 12 3 12 -3 0 -5 8 -12 18 -14 12 -3 11 -5 -6 -6 -13
0 -32 4 -42 9 -13 7 -21 7 -26 -2 -4 -6 -3 -8 4 -4 15 9 62 -43 54 -62 -3 -10
-1 -13 6 -8 7 4 12 2 12 -4 0 -7 -7 -9 -16 -6 -9 3 -18 6 -21 6 -3 0 0 6 6 14
9 10 8 15 -3 19 -9 4 -18 2 -21 -4 -4 -5 -11 -6 -17 -3 -7 4 -8 2 -4 -5 6 -9
11 -9 22 0 19 15 18 4 -2 -26 -16 -25 -12 -46 9 -44 9 0 9 2 0 6 -7 2 -13 9
-13 14 0 6 4 7 10 4 6 -4 7 1 3 11 -4 12 -3 15 6 10 7 -5 10 -14 7 -22 -3 -7
-1 -16 4 -19 6 -4 10 -1 10 4 0 6 5 11 11 11 8 0 8 -5 -1 -15 -7 -8 -16 -12
-21 -9 -5 3 -9 0 -9 -5 0 -6 5 -11 10 -11 6 0 10 -5 10 -12 0 -6 -7 -4 -18 5
-10 10 -22 14 -25 10 -4 -3 -7 -1 -7 6 0 7 -5 9 -11 5 -7 -4 0 -14 18 -25 22
-15 24 -19 8 -16 -11 1 -26 6 -32 10 -9 6 -11 3 -7 -7 3 -9 11 -16 18 -16 6 0
2 -7 -8 -15 -11 -8 -15 -15 -9 -15 6 0 16 7 23 15 16 19 26 19 34 -1 5 -13 3
-14 -7 -6 -10 8 -16 6 -25 -9 -7 -11 -18 -17 -24 -13 -7 5 -8 3 -2 -7 14 -22
11 -33 -10 -46 -19 -10 -19 -11 6 -10 14 1 24 5 21 10 -2 4 1 7 6 7 14 0 14
-17 1 -25 -10 -6 -9 -27 3 -55 9 -19 4 -76 -6 -72 -4 1 -12 2 -18 2 -5 0 -7 5
-3 11 4 8 9 7 15 -2 6 -10 9 -10 9 -2 0 18 -21 27 -30 13 -11 -19 -2 -37 22
-43 11 -3 17 -10 14 -16 -3 -5 2 -12 11 -14 17 -4 17 -5 1 -6 -10 0 -18 -5
-18 -11 0 -5 8 -10 18 -10 14 0 15 -2 2 -10 -19 -12 -33 -13 -25 -1 3 5 -2 16
-10 24 -19 19 -20 34 -2 18 10 -8 14 -7 14 3 0 8 -6 13 -13 12 -22 -3 -27 -15
-14 -31 10 -12 10 -15 -1 -15 -10 -1 -8 -4 4 -11 9 -5 17 -15 17 -20 0 -6 -6
-7 -12 -2 -19 11 -39 13 -32 2 3 -5 9 -7 14 -4 5 3 11 1 15 -5 4 -6 15 -4 30
6 16 10 25 12 30 4 3 -6 3 -10 -2 -9 -19 3 -34 -2 -29 -10 3 -5 -3 -20 -14
-34 -19 -24 -20 -26 -3 -37 15 -9 15 -10 -6 -4 -17 4 -21 3 -16 -6 5 -8 4 -11
-3 -6 -6 3 -15 -2 -21 -11 -6 -10 -11 -12 -11 -5 0 6 -4 12 -10 12 -5 0 -7 -8
-3 -17 5 -15 3 -14 -10 2 l-16 20 -1 -20 c-1 -12 -4 -15 -7 -7 -4 10 -8 10
-20 1 -11 -10 -13 -10 -11 1 2 7 -3 15 -10 17 -8 3 -10 -1 -6 -14 6 -16 5 -16
-9 2 -14 17 -16 18 -17 3 0 -9 -4 -20 -10 -23 -7 -4 -7 3 0 20 8 21 7 26 -2
22 -7 -2 -12 -10 -10 -16 1 -7 -2 -10 -8 -6 -7 4 -7 12 0 25 14 27 12 37 -3
16 -7 -9 -17 -17 -22 -16 -24 5 -34 -1 -29 -17 5 -15 4 -15 -6 1 -10 15 -14
16 -22 5 -8 -11 -9 -11 -5 1 2 8 9 16 15 16 7 1 15 3 20 4 4 2 13 4 21 4 8 1
16 7 17 14 1 7 0 8 -3 2 -3 -7 -11 -6 -24 1 -11 5 -19 6 -18 2 3 -20 -2 -27
-11 -13 -6 10 -10 11 -10 3 0 -7 -5 -13 -11 -13 -5 0 -8 4 -5 9 3 5 -1 11 -9
14 -10 4 -12 1 -8 -11 6 -15 5 -15 -10 -3 -9 7 -18 11 -18 7 -5 -24 -4 -33 4
-49 7 -16 6 -17 -11 -8 -11 6 -23 7 -27 3 -5 -4 -5 -1 -1 6 5 8 1 11 -13 9
-11 -2 -24 -6 -27 -10 -4 -4 -16 -7 -27 -7 -11 0 -17 3 -13 7 7 8 12 9 38 12
22 2 -4 16 -32 17 -18 0 -26 -4 -22 -10 13 -22 9 -54 -5 -49 -12 5 -12 7 -1
14 10 7 11 9 0 9 -7 0 -10 5 -7 10 3 6 1 10 -5 10 -6 0 -8 5 -4 12 4 7 3 8 -4
4 -9 -5 -9 -13 -2 -26 7 -14 6 -23 -4 -33 -9 -8 -11 -18 -6 -23 6 -6 -3 -10
-20 -10 -51 -3 -62 -11 -50 -35 7 -11 9 -23 7 -26 -3 -2 -8 5 -12 16 -3 12
-11 21 -17 21 -5 0 -8 -7 -4 -15 5 -13 2 -14 -17 -4 -29 15 -37 24 -14 16 11
-4 20 -1 23 8 4 8 10 13 14 10 4 -3 13 2 20 10 7 8 16 13 20 10 4 -3 18 3 30
13 18 14 21 23 13 36 -9 16 -11 16 -23 1 -11 -13 -10 -15 4 -9 9 3 16 1 16 -5
0 -10 -14 -15 -34 -12 -4 1 -14 -6 -22 -16 -8 -11 -13 -13 -14 -5 0 6 -4 12
-10 12 -5 0 -9 -3 -9 -7 3 -20 -3 -23 -23 -13 -21 10 -21 10 -5 -3 23 -19 22
-30 -2 -17 -21 11 -24 -2 -6 -30 11 -18 16 -45 7 -35 -4 4 -7 12 -7 18 0 5 -6
12 -14 15 -8 3 -11 0 -7 -7 5 -7 1 -9 -9 -4 -12 4 -13 8 -5 13 8 5 8 9 -2 13
-15 5 -17 -2 -19 -53 -1 -17 -3 -19 -6 -7 -5 21 -23 23 -23 2 0 -8 -4 -15 -10
-15 -5 0 -7 6 -4 14 7 19 -31 10 -67 -15 -14 -10 -29 -16 -33 -12 -3 3 -6 1
-6 -5 0 -7 -3 -11 -7 -11 -21 3 -33 -2 -27 -13 5 -7 3 -8 -6 -3 -8 5 -18 2
-25 -9 -11 -15 -13 -15 -19 -1 -4 11 -2 14 6 9 6 -4 8 -3 5 4 -4 5 -16 8 -27
5 -19 -5 -19 -6 -4 -18 12 -8 14 -14 5 -19 -6 -4 -9 -12 -6 -17 4 -5 1 -9 -4
-9 -14 0 -14 13 1 28 9 9 8 12 -5 12 -9 0 -18 -4 -18 -10 -1 -5 -2 -14 -3 -20
0 -5 -4 -10 -8 -10 -5 0 -11 0 -14 0 -4 0 -1 7 6 15 14 17 8 31 -9 20 -6 -3
-9 -11 -6 -16 4 -5 1 -9 -4 -9 -6 0 -11 6 -11 13 0 9 -2 9 -9 -1 -4 -8 -12
-13 -17 -13 -5 0 -10 -7 -10 -17 -1 -9 -3 -21 -4 -27 -1 -5 -1 -14 0 -20 1 -5
-1 -7 -5 -3 -4 4 -14 0 -22 -8 -10 -9 -19 -11 -27 -6 -14 12 -47 12 -40 0 3
-5 9 -6 14 -3 4 3 14 -3 21 -13 13 -15 12 -16 -4 -3 -20 15 -22 9 -6 -22 10
-22 10 -22 -6 -2 -9 11 -18 19 -21 17 -3 -2 -9 0 -12 4 -4 4 -1 4 7 -1 10 -5
12 -4 7 4 -4 6 -12 8 -18 5 -7 -5 -9 -2 -6 8 4 8 0 15 -7 15 -11 0 -11 -5 -4
-20 13 -23 2 -37 -12 -17 -9 13 -10 13 -6 0 2 -8 14 -16 26 -16 22 -1 44 -14
23 -14 -6 0 -9 -8 -6 -17 5 -17 5 -17 -6 -1 -6 9 -17 15 -25 12 -8 -4 -15 -1
-15 5 0 6 -4 11 -10 11 -5 0 -7 -7 -4 -15 4 -8 1 -15 -4 -15 -6 0 -13 7 -15
15 -4 11 -4 10 -3 -2 1 -14 9 -18 36 -16 24 2 31 0 20 -7 -8 -5 -18 -6 -22 -4
-4 3 -8 1 -8 -4 0 -6 -7 -13 -16 -16 -8 -3 -12 -2 -9 4 3 5 -5 14 -17 20 -21
10 -21 10 -6 -3 15 -12 16 -17 4 -32 -13 -18 -14 -18 -24 1 -6 10 -12 14 -12
8 0 -21 25 -35 38 -22 8 8 12 9 12 1 0 -6 -7 -14 -16 -17 -9 -4 -12 -11 -7
-18 14 -23 12 -37 -5 -31 -10 4 -13 2 -8 -5 3 -6 2 -13 -4 -17 -6 -4 -8 -10
-5 -15 3 -4 -3 -7 -12 -6 -9 0 -18 -5 -21 -13 -3 -9 0 -11 8 -6 8 5 5 -3 -6
-17 -10 -14 -22 -24 -27 -21 -4 2 -6 1 -5 -4 1 -4 -3 -18 -10 -30 -7 -13 -9
-23 -5 -23 4 -1 -3 -7 -17 -15 -29 -16 -19 -20 11 -4 11 5 16 15 13 21 -5 7
-2 8 6 3 9 -5 11 -4 6 3 -4 7 -5 16 -1 22 7 11 35 2 35 -12 0 -6 -6 -5 -15 2
-17 14 -19 7 -5 -20 8 -16 8 -18 -5 -14 -11 5 -15 0 -15 -17 0 -19 2 -21 10
-9 8 12 9 10 7 -7 -2 -12 -6 -26 -10 -29 -4 -4 -2 -13 4 -20 6 -8 7 -14 0 -18
-6 -4 -8 -14 -5 -24 4 -11 3 -13 -3 -5 -6 8 -13 8 -26 -2 -17 -12 -15 -13 17
-11 20 2 36 -1 36 -7 0 -5 -9 -7 -20 -4 -11 3 -23 0 -27 -5 -3 -7 -1 -8 5 -4
8 4 12 0 12 -10 0 -14 3 -15 12 -6 20 20 30 14 11 -6 -10 -10 -25 -17 -33 -15
-9 3 -8 0 3 -7 15 -10 21 -8 33 7 14 17 14 16 4 -5 -8 -17 -8 -23 3 -28 9 -3
13 -16 11 -37 -3 -30 -3 -31 11 -13 8 11 15 15 15 9 0 -6 -6 -16 -14 -22 -12
-10 -17 -8 -25 8 -6 11 -9 26 -8 33 2 7 2 10 0 5 -3 -4 -9 -5 -14 -1 -13 8
-11 -10 3 -24 8 -8 8 -15 -2 -27 -8 -10 -9 -15 -1 -15 6 0 11 5 11 11 0 5 5 7
10 4 6 -4 8 -10 5 -15 -6 -10 4 -40 14 -40 4 0 8 7 8 15 0 8 -4 12 -9 9 -4 -3
-8 -1 -8 4 0 5 12 14 27 21 23 9 25 9 13 -1 -22 -19 -19 -44 5 -40 17 2 17 1
5 -8 -13 -9 -13 -11 0 -19 8 -5 18 -7 22 -5 4 3 8 0 8 -6 0 -7 -8 -9 -20 -5
-15 5 -18 3 -14 -9 3 -9 10 -13 15 -10 5 3 5 -6 0 -19 -8 -19 -6 -29 8 -41 10
-9 21 -16 26 -16 5 0 0 7 -11 15 -18 14 -17 15 8 4 29 -13 28 -29 -2 -29 -10
0 -20 -6 -23 -14 -6 -16 1 -26 17 -26 6 0 5 4 -3 9 -9 6 -10 11 -3 15 6 4 16
-3 22 -14 9 -17 8 -20 -7 -21 -16 0 -15 -1 2 -8 11 -5 27 -6 34 -3 11 4 11 7
3 10 -21 7 -34 39 -18 45 10 4 12 -1 9 -16 -5 -22 -5 -22 14 1 18 21 19 22 19
3 0 -11 -4 -17 -9 -14 -5 3 -8 -1 -6 -8 3 -28 -1 -39 -16 -39 -8 0 -15 -5 -15
-10 0 -7 6 -7 20 0 25 13 26 3 2 -24 -17 -21 -17 -21 3 -4 20 17 68 22 59 6
-3 -4 2 -8 11 -8 12 0 15 -5 9 -22 -6 -20 -5 -21 10 -9 9 7 16 9 16 3 0 -14
-28 -23 -35 -12 -4 6 -3 16 1 23 4 6 4 9 -1 5 -4 -4 -14 0 -20 9 -11 15 -15
15 -29 4 -15 -13 -15 -15 0 -32 14 -16 15 -21 3 -36 -13 -16 -12 -17 4 -4 10
8 16 20 13 27 -3 7 -1 16 4 19 9 5 14 -6 12 -25 -1 -11 42 -9 55 2 8 6 13 6
13 1 0 -6 -10 -15 -22 -21 -13 -6 -17 -11 -10 -11 7 -1 10 -6 6 -13 -4 -7 -3
-8 5 -4 6 4 9 12 6 17 -4 5 -1 9 4 9 6 0 11 -7 11 -16 0 -10 6 -14 14 -11 19
7 51 -39 34 -49 -7 -5 -8 -2 -3 7 5 8 4 11 0 6 -5 -4 -10 -18 -12 -30 -2 -19
-2 -20 8 -4 12 21 32 22 49 2 7 -8 16 -12 21 -9 5 3 8 0 7 -7 -2 -6 3 -14 10
-16 8 -3 10 2 6 14 -5 14 -4 15 4 3 6 -8 9 -17 6 -21 -6 -11 46 -41 61 -35 9
3 12 0 8 -9 -3 -8 -8 -13 -13 -10 -4 2 -16 -2 -26 -10 -19 -15 -19 -15 0 -8
14 5 17 3 11 -7 -5 -9 -4 -11 3 -6 7 4 12 3 12 -2 0 -15 -13 -22 -24 -12 -8 6
-12 3 -12 -9 0 -12 6 -17 18 -13 12 3 16 -2 15 -17 -1 -23 -12 -28 -21 -8 -3
6 -3 1 0 -12 4 -17 3 -21 -6 -16 -9 6 -9 3 -1 -14 7 -11 8 -21 3 -21 -6 0 -12
-10 -16 -22 -5 -19 -8 -21 -16 -8 -10 13 -11 13 -9 0 3 -32 -1 -51 -11 -45 -6
4 -7 11 -4 17 4 7 2 8 -5 4 -9 -6 -9 -11 -1 -21 8 -10 8 -15 0 -20 -6 -4 -9
-13 -6 -21 3 -8 -1 -14 -10 -14 -8 0 -13 4 -10 8 3 5 -1 9 -9 9 -8 0 -15 -4
-15 -9 0 -4 5 -8 11 -8 5 0 8 -4 5 -9 -4 -5 6 -8 21 -6 24 2 25 1 10 -10 -9
-6 -14 -15 -10 -18 3 -4 -6 -1 -20 6 -14 6 -23 16 -20 21 4 5 1 6 -5 2 -6 -4
-9 -13 -6 -21 4 -8 10 -13 14 -10 5 3 12 0 16 -7 4 -7 4 -10 -1 -6 -14 13 -33
-12 -27 -35 3 -12 2 -20 -1 -17 -3 3 -8 18 -11 33 -3 19 -1 25 7 20 7 -4 6 0
-2 10 -7 9 -19 17 -25 17 -7 0 -8 -3 -1 -8 15 -10 13 -34 -4 -40 -9 -3 -11 0
-5 9 7 12 5 12 -9 0 -18 -14 -23 -26 -8 -16 5 3 13 0 17 -6 4 -8 9 -7 15 2 6
10 9 10 9 2 0 -6 -5 -15 -10 -18 -8 -5 -7 -12 2 -23 12 -15 11 -16 -4 -3 -10
7 -15 17 -12 22 3 5 -8 8 -25 7 -16 -1 -27 -6 -24 -11 3 -4 12 -6 20 -3 10 4
13 2 10 -8 -3 -8 -1 -17 6 -20 9 -3 9 -5 0 -5 -6 -1 -14 3 -18 9 -3 5 -13 6
-22 3 -10 -4 -14 -2 -10 4 3 5 0 10 -7 10 -12 0 -14 -16 -6 -37 1 -3 2 -8 1
-12 0 -4 5 -5 13 -2 8 3 17 1 21 -5 4 -7 -1 -8 -12 -4 -16 6 -17 5 -3 -13 11
-15 11 -16 0 -7 -21 19 -32 15 -20 -7 9 -16 8 -18 -5 -14 -20 8 -19 -6 3 -23
15 -13 15 -13 -6 -3 -15 7 -22 7 -22 0 0 -6 -14 -8 -32 -6 l-33 5 30 -14 c17
-8 23 -14 14 -15 -9 0 -16 -7 -17 -15 -1 -8 -3 -21 -4 -28 -1 -8 -7 -14 -15
-14 -9 0 -10 4 -3 11 17 17 11 29 -8 15 -9 -7 -7 -2 6 12 17 20 19 26 7 26 -8
0 -13 -2 -11 -5 8 -8 -37 -51 -47 -45 -6 3 -7 1 -3 -6 6 -9 11 -9 23 1 14 11
15 10 8 -11 -5 -15 -4 -21 3 -17 6 3 13 2 16 -3 7 -11 -13 -9 -31 2 -7 5 -13
5 -13 0 0 -4 -5 -1 -11 7 -9 13 -10 12 -5 -2 6 -20 -10 -34 -18 -16 -3 7 -3 1
-1 -14 4 -29 -3 -35 -23 -18 -9 7 -9 7 -2 -2 6 -7 5 -18 -1 -31 -8 -14 -8 -22
1 -31 8 -8 10 -6 5 9 -6 17 -5 17 5 5 9 -12 10 -11 5 8 -4 14 -2 22 6 22 7 0
9 -3 6 -6 -3 -4 -2 -15 4 -25 7 -15 7 -19 -3 -17 -7 2 -12 -3 -10 -11 2 -11
-3 -10 -24 3 -20 14 -29 15 -38 6 -8 -8 -6 -9 9 -4 18 7 19 6 6 -10 -11 -13
-12 -19 -2 -29 10 -9 11 -8 6 4 -4 10 -2 20 4 24 7 4 11 -4 11 -19 0 -14 5
-28 11 -32 7 -4 1 -16 -15 -33 -15 -15 -23 -30 -20 -34 4 -4 1 -13 -5 -21 -7
-8 -11 -23 -8 -33 4 -14 5 -13 6 5 0 12 8 25 16 28 13 5 13 9 3 22 -8 10 -9
13 -1 9 6 -4 13 -4 16 0 2 5 3 3 1 -3 -1 -6 3 -17 9 -23 7 -7 8 -12 2 -11 -20
4 -35 0 -35 -11 0 -6 10 -8 23 -5 l22 6 -23 -11 c-21 -11 -31 -30 -14 -28 18
3 32 -2 32 -12 0 -5 -4 -7 -10 -4 -5 3 -10 -1 -10 -10 0 -9 -4 -14 -8 -11 -4
2 -8 -4 -8 -15 0 -19 1 -18 17 3 10 12 21 19 25 15 4 -4 1 -7 -6 -7 -7 0 -10
-3 -7 -7 4 -3 2 -12 -4 -20 -8 -9 -8 -13 -1 -13 6 0 14 5 17 10 12 19 26 0 15
-20 -14 -25 -13 -35 3 -22 8 7 19 5 36 -9 13 -10 19 -19 14 -19 -5 0 -14 5
-21 12 -9 9 -12 9 -12 1 0 -7 5 -15 10 -18 13 -8 13 -35 -1 -35 -5 0 -8 3 -5
8 6 10 -16 46 -31 49 -7 2 -13 -2 -13 -7 0 -6 7 -10 17 -10 14 0 14 -2 -3 -22
-10 -13 -12 -17 -4 -10 21 18 35 15 19 -5 -8 -9 -9 -14 -2 -10 6 4 13 1 16 -5
3 -10 8 -10 22 2 17 14 17 13 10 -10 -7 -23 -7 -24 10 -10 11 9 16 10 11 2 -4
-7 -1 -15 8 -18 9 -3 16 -12 16 -19 0 -7 6 -15 13 -18 9 -3 9 -8 -2 -18 -12
-12 -13 -12 -6 0 6 10 4 12 -5 6 -9 -5 -11 -4 -6 3 4 7 2 12 -4 12 -6 0 -9 4
-6 9 3 5 0 14 -8 20 -10 9 -16 8 -26 -4 -7 -8 -16 -12 -21 -9 -5 3 -9 0 -9 -5
0 -14 17 -14 25 -1 3 6 14 10 23 10 16 -1 16 -2 0 -14 -16 -12 -16 -14 10 -26
15 -8 30 -13 34 -12 9 2 6 -28 -5 -45 -4 -6 -3 -15 3 -18 6 -4 9 -1 8 6 -2 7
6 13 17 14 15 0 20 7 19 27 0 15 3 25 8 22 4 -3 6 -21 3 -40 -3 -22 0 -34 8
-34 8 0 6 -4 -3 -11 -12 -8 -10 -9 7 -4 15 4 25 0 32 -12 8 -15 12 -16 23 -4
11 12 11 13 -1 6 -10 -6 -12 -4 -6 5 6 9 4 11 -5 5 -9 -6 -11 -4 -5 5 6 9 4
11 -6 5 -12 -8 -12 -6 0 8 14 18 26 15 26 -5 0 -6 6 -13 13 -16 8 -2 10 3 6
15 -5 15 -4 15 5 3 7 -11 6 -19 -6 -33 -16 -17 -16 -17 2 -11 13 5 16 4 11 -5
-5 -7 -2 -10 6 -9 7 2 12 -3 11 -9 -4 -18 7 -16 24 5 8 9 12 12 9 5 -4 -6 -1
-15 6 -19 7 -4 10 -4 6 1 -4 4 4 14 18 22 32 16 37 16 32 1 -3 -7 -11 -13 -19
-13 -7 0 -15 -8 -17 -18 -2 -9 1 -17 7 -17 6 0 8 7 4 16 -5 14 -3 15 15 5 12
-7 22 -16 22 -22 0 -6 -6 -7 -12 -3 -7 4 -9 3 -5 -1 4 -5 14 -10 23 -11 14 -2
13 0 -1 22 -8 13 -11 24 -6 24 6 0 15 -8 21 -17 10 -15 11 -15 6 -2 -3 10 6
26 22 40 l27 24 -24 -28 c-14 -15 -19 -27 -13 -27 6 0 14 5 17 10 4 6 11 8 16
5 5 -4 9 2 9 12 0 10 9 1 21 -22 26 -49 34 -57 25 -27 -6 16 -3 22 9 22 9 0
14 -4 10 -9 -3 -5 0 -13 6 -17 8 -4 9 -3 5 4 -4 7 -3 12 3 12 5 0 11 -3 14 -7
2 -5 2 -2 1 4 -2 7 4 13 12 13 11 0 14 -6 10 -16 -3 -8 -2 -12 3 -9 6 3 9 14
8 25 -1 10 -4 17 -7 15 -4 -2 -7 2 -7 10 0 18 14 20 20 3 3 -9 11 -7 28 7 18
15 20 16 10 3 -8 -11 -9 -18 -3 -18 6 0 9 -9 7 -20 -2 -11 0 -20 6 -20 5 0 7
11 5 23 -2 13 -1 28 2 33 12 16 56 49 48 37 -4 -7 -3 -13 3 -13 5 0 12 8 15
17 4 14 4 13 3 -2 -2 -12 -10 -19 -20 -19 -9 1 -14 -3 -10 -9 4 -6 1 -7 -7 -2
-9 6 -11 4 -5 -5 6 -9 4 -11 -5 -5 -9 6 -11 4 -5 -5 5 -9 4 -11 -3 -6 -7 4
-10 2 -6 -7 4 -11 12 -7 35 14 17 16 35 27 41 26 6 -1 13 4 15 11 3 6 -1 12
-8 12 -8 0 -2 8 11 17 14 10 29 18 33 18 4 0 11 6 16 13 6 11 10 10 15 -4 3
-9 4 -19 1 -22 -3 -3 -5 0 -5 7 0 7 -5 9 -12 4 -7 -4 -16 -8 -20 -8 -13 0 -21
-15 -8 -15 7 0 23 -8 34 -17 l21 -18 -20 24 c-17 21 -18 24 -3 18 12 -4 21 1
29 15 9 16 8 19 -3 13 -7 -5 -10 -5 -6 0 4 4 3 14 -3 22 -8 8 -8 13 -1 13 6 0
12 -6 15 -12 3 -10 7 -10 19 -1 8 7 19 9 23 5 5 -4 5 -1 1 6 -5 7 -15 11 -23
8 -8 -3 -11 -2 -8 3 7 12 46 11 62 -2 6 -4 9 -16 7 -25 -5 -15 -4 -14 6 1 6 9
15 15 20 12 4 -3 11 2 14 10 4 12 2 13 -13 5 -15 -7 -20 -6 -25 7 -4 9 -4 18
-1 21 3 3 5 0 5 -6 0 -7 8 -12 18 -12 14 0 15 2 2 10 -9 6 -10 10 -3 10 6 0
15 -4 18 -10 6 -10 40 -8 51 3 4 4 14 2 21 -5 11 -9 16 -9 22 1 6 10 10 8 15
-5 3 -9 4 -19 1 -22 -3 -3 -5 0 -5 8 0 10 -3 10 -15 0 -17 -14 -20 -30 -4 -30
5 0 7 5 4 10 -7 12 8 14 19 2 4 -4 13 -7 19 -7 7 -1 11 -6 10 -13 -4 -17 4
-15 28 9 11 11 23 18 27 15 3 -4 -3 -13 -14 -22 -18 -15 -18 -15 2 -5 12 6 24
8 27 4 4 -3 5 3 2 15 -2 14 1 19 13 18 9 -2 18 -8 20 -14 2 -7 8 -12 13 -12 6
0 7 4 4 10 -3 6 1 7 10 4 14 -6 13 -8 -5 -21 -21 -15 -19 -34 3 -32 8 0 8 2
-1 6 -9 3 -4 10 13 19 33 17 35 17 35 3 0 -5 -4 -8 -9 -5 -5 3 -11 -1 -15 -9
-3 -8 -1 -15 5 -15 6 0 9 -7 5 -15 -10 -26 3 -16 18 14 9 16 12 32 8 36 -4 4
3 2 16 -4 17 -9 22 -9 22 0 0 7 3 9 6 6 4 -4 1 -13 -6 -22 -16 -19 -6 -19 25
1 23 15 24 15 20 -5 -2 -12 -7 -26 -11 -33 -4 -7 -3 -8 4 -4 7 4 12 2 12 -4 0
-6 5 -8 11 -4 8 5 8 9 -1 14 -8 5 -8 10 -2 14 15 9 24 -24 11 -40 -10 -12 -9
-13 5 -8 9 3 16 12 16 20 0 8 5 14 10 14 14 0 12 -23 -2 -40 -11 -12 -10 -12
3 -2 12 9 19 9 29 -1 12 -10 12 -9 1 6 -12 15 -11 17 5 18 11 1 22 1 26 0 5 0
8 5 8 12 1 6 8 -1 16 -16 9 -16 13 -35 10 -43 -3 -9 -1 -12 4 -9 13 8 13 42 0
50 -14 9 -12 28 3 22 6 -2 11 -10 10 -16 -2 -6 1 -11 7 -11 5 0 8 -6 6 -12 -1
-7 -1 -10 1 -5 3 4 9 7 14 7 6 0 7 -5 3 -12 -5 -7 -3 -8 6 -3 10 6 12 4 6 -11
-6 -15 -5 -16 5 -7 10 10 9 15 -1 28 -7 8 -8 15 -2 15 16 0 34 -28 26 -41 -5
-8 -3 -9 5 -5 7 5 10 14 7 22 -6 16 24 16 35 1 3 -5 9 -2 12 6 4 11 0 15 -14
12 -10 -2 -19 1 -19 7 0 7 -6 6 -15 -2 -8 -7 -15 -8 -15 -4 0 5 9 15 21 22 15
10 19 10 14 1 -5 -7 -3 -10 6 -7 8 3 13 11 11 17 -1 7 2 10 8 6 6 -3 8 -10 5
-15 -3 -5 -1 -11 4 -14 5 -3 8 -14 6 -24 -1 -9 0 -11 2 -4 3 7 9 9 15 6 5 -4
4 4 -2 17 -7 13 -9 21 -5 17 5 -4 15 -2 24 5 14 10 14 10 3 -5 -8 -10 -9 -19
-3 -22 5 -4 12 3 16 14 4 12 11 17 18 13 7 -4 18 -8 25 -9 8 -2 17 -6 20 -10
4 -4 -2 -4 -13 0 -15 5 -17 4 -9 -4 9 -9 17 -9 32 -1 14 7 23 8 27 1 3 -5 12
-10 18 -10 7 0 6 4 -3 11 -12 9 -11 10 7 6 13 -3 25 -1 28 4 3 4 12 6 20 2 8
-3 15 -1 15 5 0 11 -18 11 -36 -1 -7 -4 -17 0 -23 7 -10 12 -8 13 10 9 17 -5
20 -3 14 8 -7 12 -6 12 7 1 16 -13 29 -5 41 28 4 12 6 11 6 -2 1 -20 21 -25
21 -6 0 9 3 9 12 0 17 -17 33 -15 19 2 -9 10 -8 15 3 19 10 4 13 1 9 -9 -3 -9
0 -14 8 -12 8 2 13 -4 11 -14 -2 -11 4 -16 17 -15 22 1 47 34 25 34 -7 0 -11
-4 -9 -8 3 -4 -2 -10 -11 -13 -9 -3 -12 -2 -9 5 4 5 1 16 -5 24 -9 11 -9 15
-1 15 6 0 11 -4 11 -9 0 -14 33 -6 38 9 3 8 0 10 -8 5 -9 -6 -11 -4 -5 5 6 10
10 10 19 -2 12 -16 32 -13 56 8 11 9 20 10 30 3 13 -9 12 -10 -2 -6 -9 3 -22
-1 -29 -9 -11 -13 -9 -14 17 -8 16 3 34 7 39 8 6 0 13 8 17 16 6 11 7 10 5 -5
-2 -11 -8 -19 -15 -18 -6 2 -16 -7 -22 -20 -11 -21 -10 -21 4 -3 9 11 16 16
16 12 0 -5 6 -3 14 3 9 7 17 8 20 2 3 -5 0 -12 -6 -14 -9 -4 -9 -6 -1 -6 6 -1
18 6 27 14 16 16 66 21 66 6 0 -6 -9 -8 -19 -6 -11 2 -26 -4 -33 -13 -10 -12
-10 -14 0 -8 7 4 12 2 12 -6 0 -8 3 -9 8 -3 8 12 22 13 39 2 7 -4 18 1 27 14
14 20 73 38 61 19 -3 -5 -12 -7 -20 -3 -11 4 -14 0 -9 -13 4 -14 3 -15 -4 -6
-13 19 -22 -6 -11 -33 6 -17 8 -17 8 -2 1 22 6 22 31 -3 11 -11 26 -20 33 -19
9 0 9 2 -1 6 -6 2 -9 9 -6 14 9 16 34 -10 27 -29 -4 -13 -3 -14 5 -4 5 8 12
13 16 13 16 -2 18 0 6 14 -7 8 -17 12 -24 8 -6 -4 -5 1 3 10 7 9 16 17 19 17
3 0 2 -3 -1 -6 -4 -4 6 -18 21 -32 15 -13 22 -22 16 -18 -17 8 -49 -30 -33
-40 7 -4 10 -3 5 4 -3 6 -2 13 3 17 5 3 14 -2 19 -11 5 -9 13 -15 18 -15 5 1
9 -3 9 -8 0 -5 4 -13 9 -18 5 -5 6 -3 2 5 -4 7 -2 12 6 12 8 0 7 4 -4 11 -9 5
-15 16 -12 24 4 8 10 12 15 9 5 -3 7 -10 3 -15 -3 -6 2 -9 12 -7 11 2 22 10
27 18 5 10 6 8 3 -7 -4 -23 15 -48 27 -36 4 3 7 1 7 -5 0 -6 -9 -10 -19 -9
-11 0 -17 5 -14 11 4 5 1 6 -7 1 -8 -5 -11 -4 -6 3 3 6 1 14 -6 18 -7 4 -10 4
-6 -1 4 -4 3 -16 -3 -26 -7 -15 -6 -17 6 -13 9 4 17 -1 21 -10 10 -26 41 -38
63 -26 14 7 22 7 27 -2 4 -7 3 -8 -4 -4 -7 4 -12 1 -12 -8 0 -8 -4 -18 -10
-21 -5 -3 -8 0 -7 7 2 7 2 10 0 6 -2 -4 -12 -4 -21 -1 -10 3 -8 -1 6 -12 19
-14 25 -15 39 -3 12 9 15 9 9 1 -4 -8 -2 -13 6 -13 10 0 9 -3 -2 -9 -8 -6 -18
-7 -23 -4 -5 3 -4 -4 2 -15 14 -27 14 -35 -1 -26 -7 4 -8 3 -4 -4 4 -7 2 -12
-5 -12 -7 0 -9 -3 -6 -6 4 -4 13 -1 21 5 13 11 15 9 13 -15 -1 -19 3 -29 12
-29 8 0 16 -6 19 -13 2 -8 -3 -10 -15 -6 -16 5 -17 5 -1 -6 11 -6 15 -17 11
-28 -3 -9 -3 -14 1 -11 4 4 9 17 11 29 3 13 10 28 16 34 8 8 8 4 -1 -12 -11
-22 -10 -23 12 -17 18 5 20 4 8 -4 -11 -8 -12 -11 -2 -11 8 0 12 -5 10 -11 -4
-13 -24 -11 -21 2 2 5 -1 9 -6 9 -5 0 -8 -12 -8 -26 0 -14 2 -22 6 -18 10 15
40 13 34 -2 -3 -8 -9 -11 -14 -8 -18 11 -8 -15 11 -29 11 -8 17 -17 12 -22 -4
-5 -1 -5 6 -1 7 4 10 11 8 15 -3 4 1 8 9 8 8 0 12 -4 9 -9 -3 -4 0 -8 5 -8 6
0 11 -5 11 -11 0 -8 -4 -8 -14 0 -11 9 -15 8 -20 -4 -3 -9 -10 -14 -15 -10 -5
3 -12 1 -15 -4 -7 -11 13 -9 32 2 16 10 16 -5 0 -22 -11 -11 -10 -12 1 -6 11
6 13 4 8 -8 -7 -20 12 -27 38 -14 20 10 20 9 2 -11 -18 -20 -18 -20 2 -15 12
3 21 9 21 14 0 5 5 9 11 9 8 0 8 -5 -1 -15 -7 -8 -9 -15 -5 -15 4 0 2 -6 -4
-13 -6 -8 -8 -17 -4 -20 3 -4 1 -7 -5 -7 -7 0 -12 -4 -12 -10 0 -5 6 -9 13 -7
6 1 11 -4 9 -12 -3 -12 0 -12 12 -2 8 7 19 10 25 7 5 -3 12 -1 14 4 3 6 4 5 3
-2 -2 -7 -7 -13 -12 -13 -5 0 -18 -6 -29 -13 l-20 -12 20 2 c12 2 21 -3 21
-12 1 -8 3 -19 4 -25 1 -5 2 -14 1 -18 -1 -5 4 -5 11 0 7 4 16 8 20 8 12 0 21
15 9 15 -7 0 -9 5 -6 10 11 17 24 11 20 -10 -2 -11 4 -27 13 -37 16 -16 16
-16 -1 -10 -29 11 -40 -2 -23 -28 10 -15 12 -26 6 -30 -6 -3 -10 -1 -10 4 0 6
-5 11 -11 11 -8 0 -8 -5 1 -15 7 -8 16 -13 20 -10 4 3 13 -2 19 -9 8 -10 9
-16 1 -21 -5 -3 -10 -1 -10 6 0 7 -3 10 -6 6 -3 -3 -3 -11 1 -17 5 -8 11 -8
21 1 9 8 14 8 14 1 0 -6 -8 -16 -17 -22 -12 -8 -13 -10 -3 -7 8 2 20 -3 27
-12 10 -13 14 -14 25 -3 11 11 10 12 -6 6 -16 -6 -18 -4 -13 10 5 11 3 15 -5
10 -7 -4 -8 -3 -4 5 4 6 2 18 -4 26 -10 12 -9 16 4 21 9 4 20 4 23 0 4 -3 -1
-6 -11 -6 -15 0 -15 -2 1 -26 9 -14 26 -30 37 -34 18 -8 19 -9 3 -9 -10 -1
-15 -6 -12 -11 6 -9 -8 -14 -28 -11 -5 1 -6 -3 -2 -8 3 -6 12 -8 20 -4 11 4
14 0 9 -13 -5 -18 -5 -18 6 -1 15 23 35 21 48 -5 6 -13 11 -17 11 -10 1 6 6
12 12 12 8 0 8 -4 0 -14 -7 -9 -8 -17 -2 -20 5 -3 11 -1 13 6 3 7 7 5 11 -6 4
-10 3 -15 -3 -11 -17 11 -11 -7 7 -21 11 -7 22 -9 28 -4 6 5 17 4 25 -2 12 -8
12 -9 -2 -4 -12 3 -22 -2 -29 -16 -9 -17 -9 -23 0 -26 6 -2 9 -8 5 -13 -3 -5
0 -9 5 -9 11 0 14 11 9 28 -2 4 -7 6 -11 4 -5 -1 -6 2 -2 7 9 15 35 1 35 -18
0 -9 -6 -23 -12 -31 -11 -12 -10 -12 5 -1 10 8 17 9 17 3 0 -6 -8 -16 -17 -21
-10 -6 -13 -10 -8 -11 24 0 37 18 30 41 -5 19 -4 21 4 9 9 -13 11 -13 11 0 0
9 5 7 16 -8 12 -18 19 -21 30 -11 7 6 11 16 7 22 -3 6 -1 7 6 3 9 -6 9 -11 0
-22 -8 -10 -8 -14 0 -14 6 0 11 -5 11 -11 0 -8 -4 -8 -13 -1 -10 8 -16 6 -26
-10 -10 -16 -10 -19 1 -12 7 5 21 7 31 6 9 -2 20 4 23 12 3 9 10 13 15 10 5
-3 -1 -14 -13 -25 -23 -19 -23 -19 -3 -31 11 -7 25 -13 30 -13 6 -1 9 -6 8
-11 -2 -12 26 -12 44 -1 6 4 14 3 17 -2 4 -5 0 -11 -6 -14 -7 -2 -9 -8 -5 -13
4 -5 12 -2 16 5 5 7 14 11 20 7 7 -4 9 -1 5 8 -3 9 -11 14 -17 13 -6 -1 -11 3
-12 8 0 6 -4 17 -10 25 -8 13 -7 13 10 0 11 -8 28 -23 38 -33 18 -18 19 -18
38 -1 18 16 19 16 13 1 -6 -16 -17 -21 -36 -18 -5 0 -8 -4 -8 -9 0 -12 10 -13
30 -1 8 6 18 7 23 4 5 -3 3 -9 -4 -14 -8 -5 -9 -9 -3 -9 6 0 17 7 24 15 7 8
17 15 23 15 7 0 7 -4 -1 -12 -7 -7 -12 -16 -12 -20 0 -4 9 1 21 13 21 21 46
21 41 0 -1 -7 2 -10 8 -6 6 3 8 10 5 15 -3 5 4 15 16 23 13 9 16 17 10 22 -6
3 -11 1 -11 -6 0 -7 -3 -9 -7 -6 -3 4 -12 2 -20 -4 -7 -6 -13 -8 -13 -3 0 5
-5 2 -10 -6 -8 -13 -11 -12 -24 5 -8 11 -12 22 -9 25 3 3 8 -1 10 -7 7 -20 23
-15 17 5 -4 10 -3 13 3 6 4 -6 17 -9 28 -7 11 3 28 4 38 4 16 0 17 2 5 17 -12
15 -11 16 4 4 9 -8 15 -19 12 -27 -3 -7 -1 -16 5 -20 7 -4 8 1 4 12 -6 16 -5
17 12 3 15 -12 14 -8 -5 20 -13 19 -17 29 -10 23 21 -19 34 -16 19 5 -13 15
-12 16 3 3 10 -7 15 -17 12 -22 -3 -5 0 -17 6 -26 9 -15 10 -14 4 7 -6 23 -6
24 12 10 13 -11 12 -6 -6 19 -13 19 -18 31 -10 26 10 -6 12 -4 7 9 -5 14 -3
15 13 6 11 -6 21 -6 24 -1 4 5 1 12 -4 14 -6 3 -5 4 1 3 7 -1 13 -10 15 -19 1
-9 -2 -15 -7 -11 -5 3 -9 1 -9 -4 0 -5 12 -14 28 -21 22 -9 24 -9 11 1 -9 7
-15 22 -13 33 2 10 -2 26 -9 35 -7 9 -3 7 10 -3 12 -11 19 -25 16 -34 -3 -8 6
-3 20 11 28 28 36 54 24 74 -5 7 -4 11 2 10 5 -2 17 6 25 17 13 16 15 17 10 2
-9 -26 20 -11 36 18 7 13 17 22 22 19 4 -3 8 2 8 10 0 20 17 29 26 15 4 -8 3
-9 -4 -5 -7 4 -12 4 -12 0 0 -9 32 -33 45 -33 6 0 2 4 -8 10 -9 6 -15 15 -11
20 3 5 0 17 -7 25 -6 8 -9 17 -5 21 3 3 6 0 6 -8 0 -11 2 -11 10 1 7 11 10 11
10 2 0 -7 5 -10 12 -6 7 5 8 3 2 -7 -13 -22 -13 -36 1 -36 7 0 12 7 12 16 0
34 3 42 15 35 7 -4 8 -3 4 5 -4 6 -12 9 -17 6 -5 -4 -17 -1 -26 5 -16 9 -15
10 4 5 19 -5 22 -3 16 12 -7 17 -6 17 12 0 22 -23 39 -4 24 27 -8 16 -5 15 10
-4 23 -28 27 -45 9 -34 -7 4 -9 3 -5 -1 14 -16 36 -14 30 3 -4 9 -2 13 4 9 6
-4 9 4 7 21 -2 16 5 37 17 52 12 14 19 18 16 9 -3 -9 0 -22 6 -29 10 -10 7
-12 -11 -7 -26 6 -21 -8 6 -15 16 -4 18 1 17 33 -1 31 1 37 17 34 13 -3 18 1
16 12 -2 11 6 19 22 23 14 4 24 12 22 19 -1 7 2 9 9 5 9 -5 10 -2 6 9 -3 9 -1
19 5 23 7 4 8 3 4 -4 -7 -12 5 -16 31 -13 8 1 10 -5 7 -14 -5 -11 -10 -13 -19
-5 -9 7 -16 6 -26 -6 -12 -15 -11 -16 10 -9 18 5 22 4 15 -6 -6 -11 -5 -12 8
-2 8 7 18 10 22 6 4 -4 4 1 0 11 -5 13 -4 17 3 13 6 -4 16 0 23 8 7 8 9 15 5
15 -4 0 -2 7 5 15 7 8 17 12 22 9 6 -4 5 -10 -3 -15 -10 -6 -10 -9 -2 -9 16 0
26 17 13 25 -6 4 -7 11 -4 17 5 7 2 8 -7 3 -18 -12 -52 -14 -41 -3 16 16 52
17 61 1 7 -14 10 -13 16 7 6 18 9 20 17 9 7 -12 9 -11 7 1 -3 29 1 41 11 35 6
-4 8 -11 5 -16 -10 -16 2 -10 16 9 7 9 9 14 5 10 -5 -4 -15 -3 -21 2 -9 8 -18
2 -34 -22 -18 -29 -24 -29 -20 0 1 4 6 6 11 4 6 -2 8 6 6 16 -4 14 0 19 11 18
9 0 15 5 13 12 -1 8 2 11 8 7 6 -3 8 -11 5 -16 -14 -22 36 -7 51 16 17 27 12
47 -11 38 -8 -3 -15 0 -15 7 0 6 4 9 8 6 5 -3 20 6 34 19 14 13 29 21 32 18 6
-6 9 9 7 37 0 8 9 -3 20 -25 18 -35 20 -36 16 -12 -4 24 -1 28 13 24 13 -3 17
0 13 9 -3 8 -1 14 5 14 6 0 12 -5 14 -12 3 -8 6 -7 10 3 7 19 -20 22 -41 5
-12 -9 -13 -8 -6 4 5 8 9 24 8 35 -1 16 -1 16 3 3 6 -20 34 -24 34 -5 1 6 7 1
15 -13 8 -14 14 -19 15 -12 0 6 -9 21 -19 31 -20 20 -22 44 -6 58 4 4 5 2 1
-4 -4 -8 -1 -13 8 -13 9 0 13 6 10 14 -3 8 -1 17 5 21 7 4 8 -1 4 -12 -6 -16
-5 -16 10 -4 14 11 15 16 5 29 -7 9 3 6 22 -8 l35 -23 -30 34 c-16 19 -23 28
-15 22 23 -21 33 -15 27 17 -6 29 6 49 18 30 4 -6 11 -7 17 -4 7 4 8 2 4 -5
-6 -9 -11 -9 -22 0 -10 8 -14 8 -14 0 0 -6 3 -11 8 -12 4 0 16 -2 27 -3 14 -2
21 3 21 15 0 10 -3 16 -7 13 -4 -2 -14 2 -22 10 -8 8 -18 12 -22 8 -4 -4 -2 3
4 16 14 26 19 28 17 5 0 -10 7 -19 19 -21 12 -2 16 0 10 5 -13 10 -17 53 -5
53 5 0 12 -5 16 -12 4 -6 3 -8 -3 -5 -5 3 -10 0 -10 -8 0 -20 13 -19 22 2 3
10 1 19 -4 21 -6 2 -8 8 -5 13 4 6 10 6 18 0 9 -8 13 -7 13 4 0 8 -4 12 -8 9
-4 -2 -10 0 -14 6 -3 5 -2 10 4 10 5 0 8 8 7 18 -2 9 2 20 8 24 8 5 6 12 -5
24 -13 12 -18 13 -24 3 -5 -7 -4 -10 2 -6 5 3 10 0 10 -8 0 -8 -4 -15 -9 -15
-4 0 -8 -5 -8 -11 0 -5 5 -7 11 -3 8 5 8 1 0 -13 -6 -11 -7 -24 -3 -28 4 -5 1
-5 -7 0 -9 5 -12 4 -7 -3 4 -7 3 -12 -2 -12 -6 0 -12 7 -16 15 -3 8 0 14 6 12
6 -1 13 4 16 12 3 9 0 11 -8 6 -9 -6 -9 -3 -1 13 14 27 14 35 -1 26 -10 -6
-10 -5 -1 7 10 12 10 18 0 29 -10 12 -9 12 6 1 10 -8 17 -9 17 -3 0 6 -8 16
-17 21 -10 6 -12 11 -6 11 17 0 12 22 -7 37 -8 6 -12 15 -8 19 4 4 3 13 -4 21
-8 11 -7 12 6 7 11 -4 15 -13 10 -26 -4 -14 -2 -19 7 -16 8 3 13 18 13 37 -1
23 2 31 12 27 7 -3 16 -1 18 3 5 7 -10 8 -49 2 -5 -1 -3 -6 5 -12 10 -7 11 -9
2 -7 -8 2 -13 7 -12 12 1 4 -8 16 -20 26 -21 18 -20 47 1 34 5 -3 6 -10 3 -16
-5 -7 -2 -8 6 -3 8 5 11 4 6 -3 -3 -6 -2 -13 3 -16 5 -4 12 -2 16 3 6 11 -16
37 -56 64 -13 10 -25 22 -25 27 -1 6 -3 12 -4 15 -1 3 -3 11 -4 18 -1 6 -7 11
-14 10 -6 -2 -9 4 -6 12 5 11 1 14 -12 9 -18 -6 -18 -6 0 8 18 14 17 15 -10
37 -15 12 -36 20 -46 18 -10 -3 -16 -1 -12 4 3 5 12 9 20 9 8 0 14 6 14 13 1
6 8 -1 16 -16 9 -16 18 -26 21 -23 3 3 0 12 -7 21 -10 12 -10 18 1 33 13 15
12 16 -3 4 -10 -8 -19 -9 -22 -3 -4 5 3 13 15 16 11 4 18 9 16 12 -3 2 -14 0
-26 -6 -17 -10 -22 -7 -38 19 -9 16 -21 30 -24 30 -4 0 -10 8 -12 17 -4 17 -5
17 -6 0 -1 -11 -6 -15 -13 -11 -7 5 -8 3 -3 -5 6 -10 3 -11 -12 -2 -11 6 -24
7 -28 3 -5 -4 -5 -2 -2 4 4 7 0 15 -9 18 -12 5 -15 2 -10 -11 6 -15 4 -15 -12
2 -28 30 -5 47 25 19 21 -19 53 -23 53 -7 0 3 -7 2 -16 -1 -10 -4 -14 -1 -11
6 2 7 13 11 23 10 10 -2 16 -1 13 2 -11 11 -50 16 -44 5 4 -5 -1 -9 -10 -9 -9
0 -14 4 -11 9 10 16 -21 20 -43 4 -12 -8 -27 -12 -34 -10 -8 4 -7 6 3 6 9 1
16 11 16 25 2 20 -1 22 -11 13 -7 -7 -11 -15 -8 -20 7 -12 -12 -8 -26 6 -11
10 -12 7 -7 -13 6 -20 5 -22 -4 -8 -5 9 -7 24 -4 33 5 12 9 13 14 5 4 -7 13
-9 19 -6 18 12 3 25 -24 20 -13 -2 -27 1 -30 6 -4 6 -15 8 -26 5 -11 -4 -19
-3 -18 2 4 21 -3 31 -23 36 -22 6 -22 6 2 -14 22 -17 23 -19 5 -17 -11 2 -26
12 -33 23 -13 20 -13 20 -7 0 3 -14 -2 -25 -16 -33 -12 -8 -18 -9 -15 -4 3 6
0 12 -6 15 -7 2 -9 8 -5 13 4 5 12 2 17 -6 6 -9 10 -10 10 -3 0 6 -5 15 -10
18 -6 4 -8 12 -4 18 3 7 -2 3 -10 -7 -10 -12 -14 -31 -11 -50 4 -25 3 -28 -6
-13 -5 9 -15 15 -20 12 -5 -4 -7 -10 -4 -15 6 -9 -21 -7 -31 2 -3 4 -1 15 6
25 9 15 10 15 4 -7 -6 -24 -6 -24 13 -7 11 9 23 14 28 10 4 -5 5 -2 1 5 -4 7
-11 10 -16 7 -5 -3 -11 -1 -15 5 -3 5 1 10 9 10 8 0 18 4 21 10 8 14 -26 1
-47 -18 -15 -13 -18 -13 -18 -1 0 11 -2 11 -11 -1 -8 -12 -10 -10 -5 10 l5 25
-20 -25 c-17 -21 -20 -22 -15 -5 6 19 5 19 -8 2 -13 -17 -42 -25 -32 -9 3 5
-1 9 -9 9 -8 0 -11 -5 -7 -11 11 -18 8 -63 -4 -63 -7 0 -11 10 -10 23 0 12 5
20 10 16 5 -3 6 0 2 6 -8 13 -36 5 -36 -10 0 -5 6 -6 13 -2 9 5 9 4 0 -6 -9
-9 -9 -19 -2 -34 10 -20 10 -20 -5 -2 -9 10 -13 23 -10 27 3 5 -2 6 -10 3 -9
-3 -16 -2 -16 4 0 5 -8 13 -17 16 -10 4 -14 4 -11 0 4 -4 3 -15 -3 -25 -8 -15
-14 -17 -28 -9 -14 7 -22 6 -30 -4 -14 -17 -2 -29 16 -14 11 8 17 7 27 -8 8
-10 12 -21 10 -24 -3 -2 -9 2 -14 10 -8 13 -13 13 -31 2 -11 -8 -18 -9 -14 -3
3 6 -1 11 -10 11 -11 0 -15 5 -11 15 3 10 -1 18 -12 21 -9 3 -25 10 -34 15
-23 12 -28 11 -28 -2 0 -5 5 -7 12 -3 7 5 8 3 3 -6 -6 -9 -4 -11 5 -5 8 5 11
4 7 -2 -4 -6 4 -8 20 -5 19 3 24 1 18 -7 -4 -7 -13 -10 -21 -7 -9 3 -14 -1
-15 -12 0 -14 -2 -14 -6 -2 -12 31 -25 41 -39 29 -8 -6 -11 -16 -7 -22 4 -6 1
-7 -6 -3 -9 6 -9 12 3 25 32 35 15 60 -24 37 -8 -5 -12 -6 -8 -1 4 4 2 15 -5
24 -10 14 -10 14 4 4 12 -10 18 -10 29 0 10 10 11 9 5 -2 -5 -10 -4 -12 4 -7
15 10 3 29 -15 22 -14 -6 -38 27 -27 38 6 6 -13 10 -31 7 -5 -1 -4 5 4 13 11
15 7 20 -12 17 -4 0 -5 6 -1 15 3 9 0 20 -8 25 -11 7 -12 10 -1 21 8 7 12 9
11 3 -4 -15 23 -65 34 -65 5 0 4 7 -4 16 -10 13 -10 17 2 26 11 8 11 9 -3 4
-10 -3 -20 -1 -23 4 -4 6 -1 10 6 10 29 0 -3 14 -46 20 -5 1 -1 5 10 10 19 8
18 9 -4 9 -20 1 -22 3 -11 16 15 18 22 68 9 59 -5 -3 -7 -9 -4 -14 8 -13 -6
-40 -22 -40 -8 0 -11 -5 -8 -10 3 -6 1 -10 -4 -10 -16 0 -13 16 4 30 8 7 15
17 15 22 0 5 -7 2 -16 -6 -8 -9 -20 -16 -27 -16 -6 0 -2 7 9 16 16 13 16 15 2
10 -12 -3 -18 0 -18 10 0 9 5 12 12 8 6 -4 3 4 -8 19 -12 16 -23 22 -28 16
-13 -12 -26 -11 -26 2 0 5 3 8 8 6 4 -2 15 4 24 14 15 16 15 18 1 23 -9 4 -18
4 -21 1 -3 -3 1 -5 8 -5 7 0 11 -3 8 -6 -3 -3 -15 0 -26 7 -18 12 -19 14 -5
24 11 8 13 17 7 26 -13 21 -14 42 -3 55 5 7 9 16 8 20 -3 18 1 34 9 34 4 0 8
-11 8 -25 0 -14 -3 -25 -6 -25 -4 0 -6 -13 -6 -30 0 -16 3 -30 7 -30 3 0 7 12
7 26 0 15 6 30 13 35 10 6 11 9 2 9 -15 0 -13 19 5 38 6 7 12 19 11 25 0 8 -2
8 -6 -1 -2 -6 -9 -9 -15 -6 -5 3 -2 14 8 25 9 10 21 16 25 13 5 -3 6 2 2 12
-5 15 -7 15 -15 0 -5 -9 -14 -16 -20 -16 -6 0 -5 7 3 17 12 14 12 16 -1 11
-10 -4 -15 1 -15 17 0 12 5 22 12 22 6 0 9 -6 6 -14 -3 -7 0 -13 7 -13 6 0 8
4 5 10 -3 6 1 10 9 10 9 0 16 5 16 11 0 5 -4 7 -10 4 -5 -3 -18 -1 -27 4 -10
6 -13 11 -8 11 6 0 4 4 -4 9 -9 6 -4 8 15 8 16 0 23 -2 17 -4 -7 -3 -13 -9
-13 -15 0 -6 9 -3 19 6 22 20 20 55 -6 74 -9 6 -12 12 -7 12 6 0 15 -5 22 -12
6 -6 21 -12 31 -13 16 -1 18 2 11 15 -5 10 -6 20 -2 24 3 4 -2 4 -13 0 -11 -5
-14 -9 -7 -12 7 -2 9 -8 6 -14 -9 -14 -24 11 -17 29 3 7 9 10 14 7 5 -3 9 2 9
10 0 9 5 16 11 16 5 0 8 -4 5 -9 -7 -11 3 -41 14 -41 5 0 12 9 15 20 4 12 11
17 18 14 7 -4 9 -4 5 1 -4 4 -3 14 3 22 9 9 8 13 0 13 -6 0 -17 -11 -23 -25
-6 -14 -16 -25 -21 -25 -5 0 -4 6 2 14 10 11 8 17 -6 26 -17 11 -17 11 1 6 10
-4 25 -1 32 5 7 6 18 8 23 5 5 -4 15 2 21 11 11 17 11 17 6 1 -3 -11 0 -18 7
-18 8 0 7 -4 -3 -9 -8 -6 -17 -8 -21 -5 -4 2 -7 -4 -6 -15 1 -11 3 -18 6 -16
2 3 10 -3 18 -13 12 -15 12 -15 7 0 -6 19 49 54 68 42 6 -4 8 -3 5 3 -4 6 0
13 8 17 8 3 17 1 20 -4 10 -16 25 -12 25 6 0 10 -6 14 -15 10 -8 -3 -15 -1
-15 4 0 6 9 10 21 10 13 0 18 4 13 12 -4 6 -3 8 4 4 6 -3 13 -2 17 3 3 6 13 7
22 4 11 -4 14 -3 9 6 -6 10 -4 10 12 0 12 -7 18 -17 15 -22 -3 -5 -9 -3 -14 4
-5 8 -9 9 -9 3 0 -6 -10 -11 -21 -10 -14 1 -23 -6 -25 -17 -2 -13 1 -15 10 -8
9 7 16 7 26 -2 9 -8 11 -9 6 0 -3 6 -2 14 4 18 5 3 10 1 10 -6 0 -6 9 -1 20
12 20 24 20 24 35 5 8 -11 15 -14 15 -7 0 7 5 9 11 5 6 -3 3 6 -7 22 -13 19
-14 25 -5 19 11 -6 13 -4 8 11 -7 18 -6 18 6 2 8 -10 18 -14 22 -10 5 4 5 1 1
-6 -4 -7 -12 -10 -17 -7 -15 10 -10 -2 8 -16 11 -10 14 -10 9 -1 -7 12 8 17
46 14 9 -1 18 4 21 12 3 7 -1 13 -9 13 -7 0 -10 -5 -7 -10 4 -6 1 -7 -6 -3 -7
5 -10 11 -7 14 3 3 0 12 -6 21 -10 12 -8 12 8 -1 16 -14 23 -15 34 -5 10 9 11
9 6 0 -5 -8 -1 -13 9 -13 9 0 14 4 10 9 -3 5 -1 13 5 16 6 4 9 3 8 -2 -2 -4 2
-8 7 -8 6 0 9 4 7 10 -2 5 2 5 9 -2 10 -10 15 -9 26 5 12 16 13 15 6 -3 -3
-11 -3 -17 2 -13 4 4 14 3 22 -3 9 -8 17 -8 26 0 8 6 17 8 20 4 4 -3 7 -1 7 4
0 6 -5 14 -10 16 -6 3 -5 4 2 3 7 -2 13 -9 13 -17 0 -8 -6 -13 -12 -12 -18 4
-16 -2 4 -18 11 -10 14 -10 9 -1 -5 8 0 12 14 12 11 0 23 -7 27 -15 5 -13 8
-13 20 5 12 17 13 24 1 38 -12 15 -11 16 4 4 11 -9 18 -10 23 -2 3 6 11 7 17
4 7 -5 9 -1 5 9 -4 11 -2 14 7 11 7 -3 20 2 29 11 10 9 18 11 22 5 3 -5 1 -10
-5 -10 -6 0 -9 -4 -5 -9 3 -5 0 -13 -6 -17 -8 -4 -9 -3 -5 4 4 7 3 12 -3 12
-17 0 -20 -14 -6 -27 10 -10 14 -9 19 4 5 13 9 13 24 2 16 -13 16 -13 2 5 -14
18 -13 19 2 13 10 -3 20 -2 22 2 3 5 17 9 31 9 14 0 22 -5 18 -11 -3 -6 -1 -7
6 -3 15 10 3 29 -15 22 -8 -3 -14 -2 -15 2 -6 50 -6 49 28 46 23 -2 37 3 46
17 8 10 17 16 20 13 4 -4 13 -1 21 5 11 9 16 9 22 0 4 -7 3 -9 -4 -5 -6 3 -14
1 -17 -5 -5 -7 0 -10 11 -7 11 2 18 11 18 21 -1 9 2 14 7 11 5 -3 9 0 9 7 0 7
3 9 7 6 3 -4 11 0 17 9 10 13 12 13 12 -5 0 -11 -3 -18 -6 -16 -3 2 -12 0 -20
-6 -8 -5 -10 -9 -5 -10 6 0 18 -2 28 -4 11 -2 16 -1 13 2 -3 4 0 13 7 21 10
13 9 14 -2 7 -10 -5 -12 -4 -7 3 5 8 13 9 24 3 11 -6 24 -6 35 0 9 6 18 8 18
4 1 -3 2 -8 3 -12 3 -17 18 -33 29 -33 7 0 4 5 -5 10 -20 12 -16 44 9 73 10
11 14 18 8 15 -5 -3 -19 -2 -30 3 -18 8 -17 8 5 6 16 -1 24 3 22 11 -1 8 2 11
8 7 5 -3 10 -1 10 4 0 6 5 11 12 11 6 0 3 -9 -7 -20 -10 -11 -13 -20 -7 -20 6
0 14 5 17 10 7 12 25 4 25 -11 0 -6 -5 -7 -12 -3 -7 4 -8 3 -4 -5 10 -15 29
-3 22 15 -6 16 50 59 59 44 3 -5 1 -10 -5 -10 -6 0 -8 -5 -4 -11 4 -8 9 -7 15
2 4 7 4 18 -1 25 -6 6 -6 15 -2 20 4 5 -2 2 -13 -7 -24 -19 -53 -35 -43 -24 4
4 2 15 -5 24 -11 14 -10 14 6 2 13 -11 20 -11 32 -1 8 7 13 15 11 19 -3 4 0
13 6 21 8 12 9 11 4 -3 -4 -12 -2 -17 6 -15 7 3 13 10 13 16 0 7 3 12 8 12 4
0 10 0 13 0 3 0 -2 -10 -10 -22 -19 -26 -20 -38 -5 -38 5 0 7 5 4 10 -3 6 1
10 9 10 8 0 18 4 21 10 4 6 -1 7 -12 3 -16 -6 -16 -5 -4 10 12 15 11 20 -5 40
-14 16 -14 18 -2 9 14 -11 17 -10 20 5 3 15 5 14 10 -5 4 -15 3 -20 -5 -15 -7
4 -6 -1 2 -10 7 -9 17 -14 23 -11 5 3 4 12 -3 20 -6 8 -8 14 -5 14 4 0 2 8 -3
19 -9 15 -7 18 7 17 9 0 16 5 14 12 -1 8 7 16 19 19 16 4 17 8 7 14 -10 7 -9
9 4 9 10 0 17 3 17 8 -4 21 3 23 26 8 30 -20 32 -13 6 13 -11 11 -23 16 -27
13 -4 -4 -4 -1 0 6 6 10 11 10 22 1 14 -11 20 -2 15 25 -1 5 6 5 16 2 14 -6
15 -5 6 5 -10 10 -10 16 2 29 13 14 13 17 0 17 -8 0 -11 -5 -8 -11 3 -6 -2 -4
-12 5 -18 17 -13 59 6 59 6 0 7 -6 3 -12 -5 -10 -4 -10 6 -1 9 8 19 9 31 3 12
-7 20 -6 25 2 4 6 3 8 -2 5 -15 -9 -37 9 -41 33 -2 15 1 19 9 14 10 -6 10 -4
2 7 -12 16 -12 29 0 47 7 11 4 11 -13 1 -14 -10 -17 -15 -8 -21 9 -6 8 -8 -3
-8 -13 0 -13 -1 0 -10 8 -5 10 -10 4 -10 -16 0 -36 25 -27 34 11 11 12 36 2
36 -6 0 -8 4 -5 9 4 5 3 11 -1 14 -5 2 -3 3 3 1 7 -1 14 9 17 24 5 25 4 25 -9
7 -13 -17 -14 -17 -14 -1 0 9 -4 14 -10 11 -5 -3 -10 -1 -10 5 0 6 6 10 13 9
6 -1 23 -1 37 1 23 1 23 2 5 9 -12 5 -23 4 -27 -3 -5 -8 -8 -7 -8 2 0 7 -4 10
-10 7 -5 -3 -10 -2 -10 3 0 6 7 13 16 16 8 3 13 2 10 -2 -2 -4 9 -7 25 -7 15
-1 26 1 23 4 -7 7 -35 13 -68 13 -20 0 -25 3 -15 9 8 5 10 9 5 9 -5 0 -1 9 8
19 10 11 13 22 8 25 -17 10 -2 45 16 39 14 -4 15 -3 2 5 -17 13 -30 6 -30 -14
0 -8 -4 -14 -9 -14 -6 0 -9 9 -8 20 1 11 6 20 11 20 6 0 0 7 -12 16 -13 9 -19
20 -15 27 13 21 11 36 -4 30 -12 -5 -12 -7 -1 -14 15 -10 14 -10 -23 -13 -20
-2 -26 1 -24 13 1 9 -2 19 -7 22 -5 3 1 18 12 32 12 15 17 27 11 27 -6 0 -11
-4 -11 -10 0 -5 -5 -10 -12 -10 -6 0 -8 3 -5 7 4 3 -1 12 -11 20 -16 13 -15
14 7 9 17 -3 21 -2 13 6 -6 6 -18 8 -27 4 -14 -5 -15 -9 -5 -21 7 -8 9 -15 4
-15 -5 0 -2 -5 6 -10 13 -8 13 -11 1 -22 -9 -8 -11 -9 -7 -1 6 11 -10 27 -26
28 -3 0 -10 4 -15 8 -4 5 -3 8 2 7 22 -5 27 1 15 15 -7 8 -17 12 -23 8 -6 -3
-7 -1 -3 5 6 11 -6 16 -26 13 -5 0 -8 4 -8 10 0 7 7 8 18 4 9 -5 24 -8 33 -9
10 0 15 -6 12 -16 -4 -13 -4 -13 6 0 15 21 14 33 -4 27 -8 -4 -17 -1 -21 5 -4
6 -3 8 2 5 6 -3 16 -1 24 5 12 8 12 9 -3 4 -11 -3 -20 0 -23 9 -6 15 -29 16
-53 1 -10 -6 -12 -5 -7 2 4 7 1 12 -6 12 -9 0 -9 3 2 10 8 5 11 10 6 10 -6 0
-2 6 9 13 14 11 15 16 5 22 -9 5 -11 4 -6 -3 4 -7 3 -12 -3 -12 -19 0 -21 19
-4 29 10 6 13 11 6 11 -6 0 -15 -5 -18 -10 -10 -16 -25 -1 -19 18 4 11 3 13
-3 6 -13 -19 -48 -20 -68 -4 -17 14 -18 13 -12 -2 3 -10 3 -20 -2 -22 -14 -9
-9 29 7 46 13 16 13 18 -2 24 -9 3 -13 10 -10 15 3 5 -3 6 -13 3 -13 -4 -11 0
7 16 20 17 21 19 4 11 -15 -7 -26 -6 -42 4 -19 14 -21 13 -30 -13 -7 -17 -11
-21 -11 -9 -1 19 -21 24 -21 5 0 -6 -2 -9 -5 -6 -3 3 -3 13 1 22 5 12 10 14
19 6 10 -9 13 -7 10 7 -2 10 -4 22 -4 27 -1 4 -10 -2 -20 -15 l-19 -24 -13 28
c-7 15 -16 27 -21 27 -5 0 -4 10 2 23 10 20 9 20 -9 -3 -17 -20 -21 -22 -21
-7 0 9 -4 17 -10 17 -5 0 -7 -8 -3 -17 6 -17 5 -17 -14 0 -16 14 -20 14 -20 2
0 -8 4 -12 8 -9 11 6 32 -34 25 -49 -3 -8 -5 -8 -5 2 -1 21 -51 63 -68 57 -7
-3 -16 1 -20 10 -4 12 -8 13 -14 3 -11 -19 -2 -28 26 -25 13 2 22 -1 19 -5 -3
-5 0 -9 5 -9 6 0 11 -5 11 -10 0 -7 -8 -6 -22 2 -31 17 -50 19 -65 7 -16 -14
-32 -4 -28 19 1 9 0 11 -2 5 -5 -15 -19 -17 -28 -3 -3 5 -16 9 -29 8 -20 -2
-22 -5 -13 -19 6 -10 15 -15 20 -12 5 3 3 9 -4 14 -10 6 -10 9 -2 9 7 0 24
-10 39 -23 20 -17 23 -24 11 -24 -9 0 -14 4 -11 8 7 13 -53 4 -70 -10 -13 -11
-17 -11 -22 3 -3 9 -11 13 -17 9 -6 -4 -7 -1 -2 7 6 9 2 10 -15 5 -15 -5 -20
-4 -16 4 4 6 14 11 23 11 9 0 13 3 9 7 -10 10 -48 14 -42 5 3 -5 -1 -9 -9 -9
-10 0 -12 4 -5 12 5 7 6 15 2 20 -4 4 2 3 14 -3 15 -8 24 -8 34 1 10 9 11 9 6
0 -3 -6 -2 -14 4 -18 6 -4 8 -10 5 -15 -3 -5 -1 -11 5 -15 5 -3 10 1 10 9 0 8
7 22 16 30 8 9 10 16 4 16 -6 0 -13 -7 -16 -15 -4 -8 -10 -12 -16 -9 -5 3 -4
12 4 22 8 9 8 13 2 9 -7 -4 -14 0 -18 8 -3 9 5 20 22 29 27 15 27 15 -17 11
-24 -2 -40 -1 -37 2 3 4 16 7 29 8 18 1 22 8 24 38 1 20 -2 37 -6 37 -5 0 -6
-16 -4 -36 2 -23 0 -33 -7 -29 -6 3 -8 11 -5 16 10 16 -7 10 -19 -7 -10 -13
-12 -13 -12 5 0 11 3 19 6 19 17 -1 30 3 30 12 0 5 -14 7 -30 5 -17 -2 -28 0
-25 5 3 5 13 6 21 3 14 -5 15 -3 4 17 -7 12 -7 20 -2 16 6 -3 13 -2 17 4 3 5
12 10 18 10 7 0 4 -7 -5 -14 -10 -7 -18 -17 -18 -22 0 -4 5 -3 11 3 6 6 19 9
28 6 10 -3 12 -2 5 4 -6 4 -10 16 -8 26 2 13 -2 17 -12 13 -8 -3 -22 -9 -31
-12 -15 -5 -16 -4 -3 5 11 8 12 11 2 11 -7 0 -11 4 -7 9 3 5 -3 12 -12 14 -17
4 -17 5 0 6 15 1 16 4 6 22 -8 15 -8 19 0 15 14 -9 14 -1 0 27 -10 21 -10 21
5 3 9 -11 16 -15 16 -10 0 6 -5 15 -11 21 -13 13 -4 47 10 38 6 -3 8 -12 5
-19 -7 -18 12 -30 22 -15 5 8 3 9 -6 4 -10 -6 -12 -4 -7 8 7 20 -15 41 -30 26
-7 -7 -14 -4 -24 7 -12 16 -12 17 3 11 10 -3 20 -3 22 2 7 11 -27 10 -41 -1
-16 -13 -34 -1 -27 17 3 7 -4 18 -15 25 -11 6 -20 16 -18 23 1 7 -4 11 -11 9
-8 -1 -11 2 -7 8 3 5 -1 10 -9 10 -8 0 -18 4 -21 10 -4 7 3 7 19 0 14 -5 26
-7 26 -4 0 4 7 1 15 -6 12 -10 13 -16 3 -27 -10 -12 -8 -14 8 -11 15 2 19 -3
18 -24 0 -34 7 -35 22 -3 9 18 9 24 0 22 -6 -1 -10 4 -8 11 1 8 -2 11 -8 7
-14 -9 -13 8 3 25 10 12 9 12 -4 2 -13 -10 -19 -9 -30 5 -12 15 -12 16 6 10
16 -6 15 -3 -5 13 -21 16 -22 21 -10 29 8 5 18 7 24 4 5 -3 6 -1 2 5 -5 8 -13
9 -24 3 -12 -6 -24 -4 -37 5 -17 13 -20 13 -27 -3 -7 -15 -7 -15 -5 3 1 11 -5
29 -13 40 -14 19 -14 19 8 0 13 -12 22 -14 22 -7 0 7 5 9 11 5 8 -4 7 -9 -2
-15 -10 -6 -10 -9 -2 -9 17 0 23 14 13 29 -4 8 -13 10 -19 7 -6 -4 -14 0 -17
8 -3 9 -9 14 -13 11 -4 -2 -8 2 -8 10 0 8 5 13 11 12 6 -1 10 3 9 9 -1 7 6 10
17 7 22 -6 26 -18 10 -28 -5 -3 -10 -1 -10 5 0 6 -5 8 -10 5 -17 -11 -2 -23
27 -22 16 0 22 2 15 4 -6 3 -9 10 -6 15 4 6 -1 17 -10 24 -10 7 -17 15 -17 18
3 21 -1 26 -11 20 -7 -4 -9 -3 -5 1 13 15 39 15 33 0 -3 -8 -1 -17 4 -20 6 -4
10 0 11 7 2 34 9 54 26 66 10 7 19 17 19 22 1 6 3 13 4 18 1 4 2 11 1 15 -1 5
3 6 8 3 5 -4 12 -2 16 4 4 6 11 8 16 5 5 -4 9 -1 9 6 0 7 3 9 7 6 10 -11 32
13 26 29 -4 10 0 12 11 8 9 -3 13 -11 9 -17 -4 -6 -1 -7 7 -2 10 6 9 11 -6 22
-16 12 -20 11 -31 -3 -7 -9 -11 -20 -8 -23 2 -4 -5 -7 -16 -7 -16 0 -18 2 -7
11 30 22 57 72 46 83 -12 12 -1 35 13 26 6 -3 8 -12 5 -20 -3 -8 -1 -14 4 -14
6 0 10 11 10 25 0 14 -5 25 -11 25 -5 0 -8 4 -4 9 3 5 -3 12 -12 14 -17 4 -17
5 0 6 11 1 15 6 11 13 -4 7 -3 8 4 4 19 -11 14 5 -5 20 -17 13 -17 14 2 8 20
-6 20 -5 1 10 -26 21 -12 21 20 0 13 -9 27 -14 31 -10 3 3 1 6 -7 6 -10 0 -10
4 1 17 10 11 10 14 2 9 -7 -4 -13 -2 -13 3 0 6 -5 11 -11 11 -8 0 -7 -6 2 -17
12 -16 11 -15 -8 0 -12 11 -26 16 -31 13 -5 -3 -9 1 -9 9 0 10 5 11 17 5 17
-9 30 -4 30 11 0 5 -8 5 -17 2 -16 -6 -16 -5 -4 10 7 9 10 17 5 18 -5 1 2 4
16 8 17 5 24 14 25 33 1 15 -2 25 -6 22 -4 -2 -6 -14 -4 -25 3 -15 0 -19 -13
-17 -9 3 -16 10 -14 16 1 7 -7 21 -18 32 -25 25 -27 48 -2 29 15 -13 16 -12 3
4 -8 10 -18 14 -25 9 -14 -11 -56 -13 -56 -3 0 16 14 20 28 8 13 -9 14 -9 8 1
-4 6 -2 12 3 12 6 0 11 4 11 10 0 5 -3 9 -7 9 -20 -3 -24 2 -13 16 11 13 10
14 -4 9 -10 -4 -15 -12 -12 -19 9 -23 -26 -27 -41 -5 -12 17 -18 19 -29 9 -8
-6 -17 -9 -21 -5 -3 3 -1 6 5 6 7 0 12 5 12 11 0 5 -4 8 -8 5 -13 -8 -11 27 2
43 8 11 8 13 -1 7 -7 -4 -14 -2 -14 3 -1 6 -2 15 -3 20 0 5 -5 13 -10 18 -5 4
-6 3 -3 -3 6 -11 -10 -23 -39 -29 -6 -2 -16 6 -22 16 -7 11 -8 19 -3 19 6 0
13 -4 16 -10 8 -13 25 -13 25 1 0 5 -4 8 -9 4 -5 -3 -13 -1 -16 5 -4 6 -16 8
-27 4 -14 -4 -18 -2 -14 5 4 6 3 11 -3 11 -5 0 -9 -9 -8 -20 1 -12 7 -18 14
-16 13 5 39 -31 30 -41 -3 -2 -8 5 -12 16 -3 12 -11 19 -16 15 -6 -4 -5 -12 2
-22 7 -10 0 -4 -15 11 -26 26 -29 27 -40 11 -13 -18 -13 -19 -7 41 1 6 6 2 12
-7 5 -10 15 -18 22 -18 7 0 6 4 -3 10 -8 5 -10 10 -5 10 6 0 4 4 -4 9 -19 12
-41 3 -42 -18 0 -13 -2 -13 -6 -1 -11 30 -25 41 -39 30 -19 -17 -12 15 9 38
15 17 16 21 3 31 -8 7 -14 18 -12 24 1 7 1 9 -1 5 -3 -5 -12 -8 -20 -8 -10 0
-13 -6 -9 -16 3 -8 2 -12 -4 -9 -6 4 -8 17 -6 30 5 25 -8 43 -17 25 -3 -6 -4
-5 -3 2 2 7 8 12 14 11 5 -1 12 4 15 11 7 18 -25 15 -39 -3 -9 -11 -12 -12
-19 -1 -5 8 -4 11 2 7 18 -11 22 19 7 42 -13 19 -12 24 6 23 3 0 6 8 6 18 0
18 -2 18 -18 3 -10 -9 -21 -13 -25 -10 -3 4 -1 7 6 7 8 0 10 8 6 23 -5 17 -4
19 4 7 9 -12 11 -12 8 5 -4 32 -16 45 -35 38 -15 -6 -15 -4 2 15 10 12 24 19
30 15 6 -4 2 3 -8 15 -13 16 -23 19 -31 12 -9 -7 -16 -5 -26 7 -12 15 -12 16
4 10 9 -3 17 -2 17 3 0 6 -7 10 -16 10 -9 0 -12 5 -8 13 6 9 5 9 -8 0 -8 -7
-18 -10 -21 -6 -4 3 -7 1 -7 -6 0 -8 6 -11 16 -7 8 3 12 2 9 -3 -9 -16 -43 -9
-37 8 3 8 1 12 -5 8 -6 -4 -17 3 -25 16 -15 21 -14 22 18 23 19 1 34 -3 34 -8
0 -5 -5 -6 -12 -2 -7 4 -8 3 -4 -4 10 -17 26 -15 26 4 0 9 5 12 12 8 7 -4 8
-3 4 5 -4 6 -12 9 -17 6 -5 -4 -20 5 -34 19 -14 14 -25 21 -25 15 0 -6 -4 -8
-9 -4 -6 3 -8 14 -6 25 2 12 -4 24 -15 30 -12 7 -17 17 -14 28 5 14 4 14 -4 2
-8 -10 -8 -18 0 -27 6 -7 7 -14 2 -14 -56 -8 -61 -6 -44 21 8 13 10 12 10 -2
0 -10 5 -18 10 -18 18 0 -9 40 -39 58 -16 10 -27 24 -25 34 2 14 -2 15 -22 6
-13 -6 -20 -16 -17 -21 5 -8 8 -7 11 1 2 7 7 12 11 12 10 0 11 -39 0 -45 -5
-4 -6 2 -2 12 6 16 5 16 -11 4 -15 -12 -17 -12 -14 0 2 8 -3 13 -9 11 -23 -4
-13 12 20 36 17 12 26 22 20 22 -6 0 -18 -7 -27 -15 -8 -9 -17 -11 -21 -6 -3
5 -1 12 5 16 5 3 10 11 10 18 0 6 -6 2 -14 -8 -8 -11 -12 -23 -9 -27 2 -5 -3
-11 -11 -14 -9 -3 -13 -11 -9 -17 4 -6 1 -7 -7 -2 -10 6 -9 11 4 21 10 7 13
15 7 18 -5 3 -17 -2 -27 -11 -17 -17 -17 -17 -11 -1 4 12 0 21 -13 28 -11 6
-20 8 -20 4 0 -3 -7 -1 -15 6 -10 9 -15 9 -15 1 0 -6 -9 -2 -20 9 -10 10 -28
17 -38 15 -11 -2 -19 2 -19 11 0 17 17 19 17 2 0 -8 4 -7 10 3 9 16 6 56 -5
68 -3 3 -3 -10 0 -29 l6 -34 -22 20 c-12 10 -19 14 -16 7 4 -6 3 -21 -1 -34
l-9 -23 -5 22 c-4 15 -2 20 5 15 9 -5 9 -3 1 8 -6 8 -10 22 -9 32 2 9 -1 17
-6 17 -6 0 -9 -7 -7 -16 2 -10 -3 -19 -11 -22 -8 -3 -11 0 -7 7 4 6 3 11 -2
11 -6 0 -12 -7 -16 -15 -3 -8 -2 -14 2 -14 21 3 32 -3 32 -18 -1 -17 -1 -17
-11 0 -6 9 -15 15 -21 11 -6 -4 -5 -9 3 -15 9 -5 1 -7 -20 -4 -18 2 -36 7 -40
10 -3 4 1 6 9 5 27 -4 37 0 37 15 0 11 -4 12 -14 4 -18 -16 -16 -4 3 15 8 9
11 16 5 16 -6 0 -15 -9 -21 -20 -6 -11 -15 -18 -21 -15 -5 4 -9 0 -9 -7 0 -8
-3 -9 -8 -3 -11 16 -45 19 -36 3 4 -7 4 -10 -1 -6 -4 4 -15 2 -24 -5 -14 -10
-14 -10 -3 5 10 13 10 17 0 20 -10 4 -10 9 2 24 8 10 10 16 6 12 -5 -4 -15 -3
-23 3 -9 9 -13 8 -13 0z m-42 -29 c12 10 14 10 8 1 -4 -7 -2 -13 3 -13 6 0 11
5 11 10 0 6 8 5 20 -2 16 -11 17 -14 5 -21 -9 -4 -12 -13 -9 -19 4 -7 2 -8 -5
-4 -9 6 -9 11 -1 21 8 10 5 13 -15 11 -18 -1 -24 -5 -20 -16 3 -10 1 -10 -9 3
-18 23 -25 21 -20 -5 3 -16 2 -18 -3 -7 -9 18 -42 17 -54 -3 -5 -7 -9 -8 -9
-3 0 19 15 32 32 30 9 -2 23 4 30 12 8 10 14 11 16 4 3 -9 8 -8 20 1z m-60
-67 c-3 -3 -9 2 -12 12 -6 14 -5 15 5 6 7 -7 10 -15 7 -18z m-453 -109 c12
-12 11 -15 -6 -19 -14 -4 -18 -10 -13 -19 6 -11 5 -11 -8 0 -13 10 -17 10 -22
-3 -3 -8 -12 -15 -20 -15 -8 0 -18 -5 -22 -12 -5 -8 -2 -9 10 -5 9 4 15 3 12
-2 -3 -5 -18 -8 -32 -8 -22 0 -24 1 -10 9 9 5 14 13 12 17 -3 4 2 8 11 8 9 0
28 14 42 31 31 36 29 36 46 18z m1105 -11 c0 -15 -21 -12 -30 5 -11 20 -10 21
9 10 12 -6 21 -13 21 -15z m-37 -10 c4 -8 3 -16 -1 -19 -4 -3 -9 4 -9 15 -2
23 3 25 10 4z m104 -40 c0 -8 -4 -15 -8 -15 -11 0 -20 16 -12 24 11 11 20 7
20 -9z m-1 -30 c12 -8 24 -12 26 -9 3 2 11 -3 18 -11 11 -14 10 -14 -12 -6
-14 5 -29 7 -34 3 -4 -4 -4 -1 0 6 6 11 -5 17 -26 13 -5 0 -8 4 -8 9 0 14 12
12 36 -5z m-1455 -132 l24 -28 -24 20 c-19 15 -23 16 -19 4 4 -9 1 -16 -6 -16
-10 0 -13 25 -7 45 2 6 9 0 32 -25z m1566 1 c5 -12 7 -12 18 2 8 11 14 13 19
6 7 -12 -27 -35 -38 -25 -3 3 -6 1 -6 -5 0 -7 -5 -12 -12 -12 -6 0 -8 3 -5 7
4 3 0 14 -8 23 -13 14 -12 16 6 17 11 1 23 -5 26 -13z m14 -54 c13 -8 19 -7
19 0 0 6 5 8 11 5 6 -5 4 -11 -7 -19 -9 -7 -14 -18 -10 -24 3 -6 2 -13 -2 -16
-5 -3 -9 5 -8 17 1 13 -7 27 -19 34 -24 15 -11 17 16 3z m34 -100 c10 -11 16
-20 13 -20 -3 0 -13 9 -23 20 -10 11 -16 20 -13 20 3 0 13 -9 23 -20z m-1965
-40 c0 -5 -2 -10 -4 -10 -3 0 -8 5 -11 10 -3 6 -1 10 4 10 6 0 11 -4 11 -10z
m10 -30 c0 -5 -4 -10 -10 -10 -5 0 -10 5 -10 10 0 6 5 10 10 10 6 0 10 -4 10
-10z m2064 -71 c-3 -5 -10 -7 -15 -4 -5 4 -9 2 -9 -4 0 -5 -9 -9 -19 -8 -11 0
-17 5 -15 9 3 5 10 6 15 2 6 -3 13 4 16 15 4 17 8 19 19 10 8 -6 11 -15 8 -20z
m-2165 -15 c14 -12 -19 -1 -35 12 -18 14 -18 14 6 3 14 -6 27 -13 29 -15z
m2375 -109 c3 -8 1 -15 -4 -15 -6 0 -10 5 -10 11 0 5 -5 7 -10 4 -6 -4 -8 -11
-5 -16 3 -5 -1 -6 -9 -3 -9 3 -16 10 -16 16 0 5 4 7 9 3 5 -3 12 -1 16 5 9 15
22 12 29 -5z m-39 -34 c3 -5 2 -12 -3 -15 -5 -3 -9 1 -9 9 0 17 3 19 12 6z
m155 -113 c0 -4 -4 -8 -9 -8 -6 0 -12 4 -15 8 -3 5 1 9 9 9 8 0 15 -4 15 -9z
m40 -10 c28 -44 20 -79 -10 -43 -7 8 -9 15 -6 15 4 0 4 6 -1 13 -10 16 -13 37
-5 37 4 0 14 -10 22 -22z m-2710 -13 c0 -2 -9 -3 -19 -2 -11 0 -18 5 -15 9 4
6 34 0 34 -7z m2680 -29 c0 -2 -7 -7 -16 -10 -8 -3 -12 -2 -9 4 6 10 25 14 25
6z m-2840 -236 c0 -5 -5 -10 -11 -10 -5 0 -7 5 -4 10 3 6 8 10 11 10 2 0 4 -4
4 -10z m2844 -35 c-9 -14 -18 -25 -21 -25 -5 0 5 18 20 38 17 22 18 13 1 -13z
m-2824 5 c0 -5 -2 -10 -4 -10 -3 0 -8 5 -11 10 -3 6 -1 10 4 10 6 0 11 -4 11
-10z m-20 -125 c0 -2 -5 -7 -12 -11 -6 -4 -8 -3 -5 3 7 12 -17 25 -27 16 -10
-10 -7 -25 4 -18 6 3 10 2 10 -3 0 -12 -26 -23 -34 -15 -10 10 -7 21 10 37 12
12 20 13 35 6 10 -6 19 -13 19 -15z m2726 -37 c-9 -12 -16 -19 -16 -15 0 11
24 47 28 42 2 -2 -3 -14 -12 -27z m-36 -62 c0 -2 -7 -7 -16 -10 -8 -3 -12 -2
-9 4 6 10 25 14 25 6z m-2726 -15 c3 -5 -1 -11 -9 -14 -9 -4 -12 -1 -8 9 6 16
10 17 17 5z m2754 -133 c-2 -4 6 -14 17 -22 18 -14 18 -15 3 -16 -10 0 -18 5
-18 11 0 5 -4 8 -8 5 -4 -2 -9 4 -9 15 -1 11 3 19 8 17 6 -2 9 -7 7 -10z
m-2754 -37 c4 -5 -3 -7 -14 -4 -23 6 -26 13 -6 13 8 0 17 -4 20 -9z m2864
-149 c2 -6 -6 -10 -16 -9 -12 1 -18 6 -15 14 6 16 25 13 31 -5z m-6 -49 c-6
-2 -9 -10 -6 -15 4 -7 2 -8 -5 -4 -13 9 -5 26 12 25 9 0 8 -2 -1 -6z m-2902
-14 c0 -5 -4 -7 -10 -4 -14 9 -12 -8 3 -25 10 -12 9 -12 -4 -2 -9 6 -19 8 -23
4 -4 -4 -6 0 -4 8 5 25 38 42 38 19z m-5 -79 c3 -5 1 -10 -4 -10 -6 0 -11 5
-11 10 0 6 2 10 4 10 3 0 8 -4 11 -10z m2958 -152 c-4 -7 -8 -17 -8 -22 0 -5
-6 -11 -12 -13 -18 -6 -16 12 3 31 19 19 28 21 17 4z m339 -96 c7 -7 8 -12 3
-12 -4 0 0 -9 9 -19 12 -13 14 -21 6 -26 -6 -4 -9 -1 -8 7 2 7 -2 12 -9 11 -7
-2 -10 6 -8 17 2 12 -2 20 -10 20 -8 0 -16 4 -19 9 -9 13 22 7 36 -7z m-3295
-17 c0 -8 -4 -15 -9 -15 -10 0 -11 14 -1 23 9 10 10 9 10 -8z m2917 7 c3 -5
-1 -9 -9 -9 -8 0 -12 4 -9 9 3 4 7 8 9 8 2 0 6 -4 9 -8z m46 -22 c0 -5 -8 -10
-17 -10 -15 0 -16 2 -3 10 19 12 20 12 20 0z m53 -5 c-3 -9 -8 -14 -10 -11 -3
3 -2 9 2 15 9 16 15 13 8 -4z m387 -16 c0 -5 5 -7 12 -3 7 4 8 3 4 -4 -4 -6 5
-17 20 -25 22 -12 24 -15 10 -20 -9 -4 -14 -3 -11 2 3 5 -4 12 -15 16 -11 3
-20 11 -20 16 0 6 -4 8 -8 5 -5 -3 -9 1 -9 9 0 8 4 15 9 15 4 0 8 -5 8 -11z
m-3756 -12 c4 4 4 0 0 -10 -8 -22 -11 -22 -25 6 -11 19 -10 20 3 10 8 -7 18
-10 22 -6z m86 -21 c0 -3 -4 -8 -10 -11 -5 -3 -10 -1 -10 4 0 6 5 11 10 11 6
0 10 -2 10 -4z m-170 -26 c0 -5 -4 -10 -10 -10 -5 0 -10 5 -10 10 0 6 5 10 10
10 6 0 10 -4 10 -10z m-85 -30 c3 -5 1 -10 -4 -10 -6 0 -11 5 -11 10 0 6 2 10
4 10 3 0 8 -4 11 -10z m4069 -29 c12 -10 14 -17 5 -27 -6 -8 -16 -14 -22 -14
-6 0 -2 7 9 16 15 13 16 15 2 10 -13 -4 -15 -1 -11 12 6 15 5 15 -10 3 -10 -8
-20 -11 -24 -7 -3 3 -1 6 6 6 7 0 10 4 7 9 -9 13 19 7 38 -8z m71 -81 c-3 -5
-13 -6 -21 -3 -12 4 -13 8 -3 14 15 9 32 2 24 -11z m-4555 -74 c0 -3 -4 -8
-10 -11 -5 -3 -10 -1 -10 4 0 6 5 11 10 11 6 0 10 -2 10 -4z m-25 -34 c-3 -3
-11 0 -18 7 -9 10 -8 11 6 5 10 -3 15 -9 12 -12z m-97 -7 c3 -3 2 -8 -3 -12
-4 -5 -10 -2 -12 5 -3 6 -9 9 -14 6 -6 -3 -5 -11 2 -20 9 -11 9 -14 0 -14 -7
0 -9 -5 -5 -12 4 -7 4 -10 -1 -6 -5 5 -10 21 -11 37 -3 26 -1 29 18 26 11 -3
23 -7 26 -10z m4818 -98 c-4 -31 -33 -51 -33 -23 0 8 6 12 15 8 11 -4 13 -2 6
9 -5 8 -9 17 -9 21 0 17 -15 19 -15 2 0 -16 -2 -16 -10 -4 -13 21 11 32 31 14
10 -9 16 -21 15 -27z m18 -58 c11 2 8 -13 -3 -17 -6 -2 -11 1 -11 7 0 6 -8 11
-17 11 -15 0 -16 2 -3 10 9 6 17 5 21 -1 3 -6 9 -10 13 -10z m-5041 -34 c-3
-9 -8 -14 -10 -11 -3 3 -2 9 2 15 9 16 15 13 8 -4z m5061 -175 c-6 -6 -10 -3
-10 10 0 13 4 16 10 10 7 -7 7 -13 0 -20z m-5157 -16 c-3 -3 -12 -4 -19 -1 -8
3 -5 6 6 6 11 1 17 -2 13 -5z m5163 -20 c0 -8 -19 -13 -24 -6 -3 5 1 9 9 9 8
0 15 -2 15 -3z m28 -22 c9 -6 5 -12 -15 -20 -25 -11 -26 -11 -10 2 14 10 15
15 5 19 -7 3 -8 6 -3 6 6 0 16 -3 23 -7z m-28 -103 c0 -5 5 -7 11 -3 8 5 8 1
0 -13 -6 -11 -7 -23 -3 -27 3 -4 -2 -4 -12 0 -13 5 -14 9 -6 14 7 4 9 13 6 19
-4 6 -12 8 -18 5 -7 -4 -8 -2 -4 4 9 15 26 16 26 1z m-47 -74 c-3 -9 -8 -14
-10 -11 -3 3 -2 9 2 15 9 16 15 13 8 -4z m-3476 -66 c2 -28 11 -35 25 -21 7 7
16 12 22 12 5 0 1 -7 -10 -15 -17 -13 -17 -16 -4 -26 13 -9 13 -10 -1 -6 -9 3
-22 0 -29 -6 -10 -9 -11 -9 -5 2 6 10 4 12 -5 6 -9 -6 -11 -4 -5 5 6 9 4 11
-5 5 -9 -6 -11 -4 -5 5 5 9 4 11 -3 6 -9 -5 -9 -12 0 -26 9 -14 20 -17 45 -14
18 2 33 1 34 -4 0 -4 2 -15 4 -24 2 -12 -2 -15 -13 -11 -14 5 -14 3 2 -15 11
-12 14 -22 8 -22 -7 0 -12 4 -12 8 0 4 -9 8 -19 9 -13 1 -18 -3 -14 -12 2 -8
8 -13 11 -12 4 1 8 -2 10 -8 3 -14 -19 -14 -44 1 -14 8 -25 9 -35 2 -11 -8
-11 -9 3 -4 21 6 34 -12 19 -27 -18 -18 -13 -46 8 -44 14 1 18 8 16 29 -2 24
0 26 16 17 11 -5 24 -7 29 -4 5 3 12 0 16 -6 4 -7 3 -10 -2 -7 -5 3 -20 2 -33
-3 -20 -8 -22 -11 -10 -26 12 -14 12 -16 0 -8 -11 6 -13 3 -9 -12 4 -16 1 -19
-18 -17 -29 3 -31 -9 -4 -36 16 -16 17 -20 5 -20 -8 0 -15 5 -15 10 0 7 -6 7
-19 0 -11 -5 -28 -7 -38 -3 -23 8 -15 -1 16 -17 15 -8 21 -8 17 -1 -4 6 -2 11
3 11 6 0 11 -5 11 -11 0 -5 4 -8 8 -5 5 3 9 -1 9 -9 0 -8 -4 -15 -9 -15 -4 0
-8 5 -8 11 0 5 -5 7 -12 3 -7 -5 -5 -11 7 -21 17 -12 17 -13 2 -13 -20 0 -21
-4 -6 -33 9 -20 9 -21 -4 -4 -9 11 -18 14 -21 8 -4 -5 -2 -12 4 -16 5 -3 10
-11 10 -18 0 -7 -3 -8 -10 -1 -14 14 -22 56 -9 49 9 -6 10 -5 14 33 2 18 -1
21 -18 16 -14 -5 -18 -3 -12 7 4 8 -1 6 -11 -4 -17 -16 -17 -20 -4 -30 14 -11
16 -21 11 -44 -1 -5 -6 2 -11 15 -10 22 -30 31 -30 11 0 -5 4 -8 9 -5 5 3 11
-4 14 -15 4 -13 10 -18 18 -13 7 4 10 3 6 -3 -4 -6 0 -16 8 -23 14 -11 14 -15
-1 -31 -10 -11 -12 -19 -6 -19 11 0 9 -31 -4 -51 -4 -8 -9 -8 -17 0 -6 6 -19
11 -28 11 -12 0 -16 8 -15 25 0 14 3 25 6 25 14 -1 32 -19 35 -36 2 -10 4 -21
4 -24 1 -3 5 2 10 9 12 19 -4 51 -25 51 -8 0 -13 4 -9 9 3 6 14 8 25 6 11 -2
22 0 25 6 4 5 -2 9 -11 9 -10 0 -15 3 -11 6 3 3 -9 18 -26 34 -27 24 -30 30
-18 44 17 20 10 29 -13 20 -14 -5 -15 -9 -4 -15 10 -7 11 -9 0 -9 -7 0 -10 -5
-6 -12 5 -7 3 -8 -6 -3 -8 5 -11 4 -6 -3 3 -6 2 -14 -4 -17 -6 -4 -8 -15 -5
-25 3 -10 1 -21 -5 -25 -7 -4 -7 -12 0 -25 14 -27 12 -34 -5 -20 -8 7 -12 16
-9 21 3 5 -1 6 -9 3 -8 -3 -18 -1 -22 5 -3 7 0 8 9 5 8 -3 19 3 26 15 6 12 7
21 1 21 -14 0 -7 27 14 50 21 23 10 27 -16 4 -11 -10 -19 -12 -24 -4 -3 6 -3
9 2 8 4 -1 22 7 38 18 32 20 38 42 18 66 -10 12 -10 15 0 16 6 0 22 3 34 5 13
4 24 0 27 -9 3 -8 11 -14 18 -13 10 0 10 2 0 6 -18 7 -4 23 16 17 14 -5 14 -4
3 4 -8 6 -20 8 -28 5 -8 -3 -13 0 -11 8 4 17 19 34 35 40 7 2 2 9 -11 15 -21
10 -24 9 -21 -8 3 -11 0 -16 -7 -12 -7 5 -8 2 -3 -6 5 -8 4 -11 -3 -6 -6 3
-14 1 -18 -5 -4 -7 -3 -9 4 -5 6 3 13 2 17 -4 3 -5 -1 -10 -9 -10 -23 0 -28
17 -10 34 8 9 12 16 8 16 -3 0 -1 6 5 14 10 11 8 17 -6 25 -10 6 -15 11 -11
11 4 0 22 -9 42 -20 38 -23 55 -13 34 20 -7 11 -15 20 -19 20 -12 0 -5 29 9
35 10 3 12 0 9 -10 -8 -19 12 -31 26 -15 9 9 8 14 -5 24 -10 7 -15 15 -12 18
3 4 0 9 -6 13 -6 3 -9 1 -8 -6 2 -7 -2 -13 -9 -14 -16 0 -41 -25 -26 -25 7 0
10 -9 8 -20 -3 -13 0 -18 7 -14 7 4 8 3 4 -4 -5 -9 -12 -8 -26 0 -12 8 -15 15
-8 19 6 4 8 11 4 17 -3 5 1 15 9 22 11 9 12 17 5 30 -7 13 -7 21 0 25 6 4 10
3 9 -2 -3 -20 2 -34 11 -28 6 4 8 10 5 14 -2 5 2 17 10 27 8 10 15 14 15 9 0
-6 -5 -16 -12 -23 -9 -9 -9 -12 3 -13 7 -1 18 -1 23 0 5 1 6 -5 3 -13 -8 -20
11 -32 26 -17 9 9 7 10 -7 5 -14 -5 -17 -4 -12 5 4 6 3 18 -3 25 -14 17 -6 55
16 72 10 7 18 14 18 14 1 0 1 -10 2 -21z m63 -39 c0 -5 -2 -10 -4 -10 -3 0 -8
5 -11 10 -3 6 -1 10 4 10 6 0 11 -4 11 -10z m3294 -26 c3 -8 2 -12 -4 -9 -6 3
-10 10 -10 16 0 14 7 11 14 -7z m-34 -55 c0 -5 -4 -9 -8 -9 -5 0 -9 7 -9 15 0
8 4 12 9 9 4 -3 8 -9 8 -15z m-3370 -9 c0 -5 -5 -10 -11 -10 -5 0 -7 5 -4 10
3 6 8 10 11 10 2 0 4 -4 4 -10z m3324 -16 c3 -8 2 -12 -4 -9 -6 3 -10 10 -10
16 0 14 7 11 14 -7z m-3344 -44 c0 -5 -7 -7 -15 -4 -8 4 -12 10 -9 15 6 11 24
2 24 -11z m3360 16 c0 -3 -4 -8 -10 -11 -5 -3 -10 -1 -10 4 0 6 5 11 10 11 6
0 10 -2 10 -4z m-4854 -22 c-1 -9 -11 -21 -22 -26 -18 -9 -18 -9 0 6 11 9 16
16 12 16 -4 0 -4 5 -1 10 9 15 14 12 11 -6z m1418 -6 c-3 -4 -11 -5 -19 -1
-21 7 -19 12 4 10 11 0 18 -5 15 -9z m132 -3 c-3 -20 -16 -31 -16 -13 0 13 8
28 16 28 1 0 1 -7 0 -15z m-1526 -15 c0 -5 -5 -10 -11 -10 -5 0 -7 5 -4 10 3
6 8 10 11 10 2 0 4 -4 4 -10z m4736 -16 c-9 -6 -13 -14 -10 -17 4 -3 -6 -4
-21 -1 -19 3 -24 1 -19 -7 4 -8 3 -9 -4 -5 -6 4 -9 13 -5 21 6 17 23 20 23 4
0 -5 5 -7 10 -4 6 4 8 10 6 14 -3 3 4 7 15 7 18 0 18 -2 5 -12z m-3163 -39
c-3 -9 -8 -14 -10 -11 -3 3 -2 9 2 15 9 16 15 13 8 -4z m2972 -13 c-3 -3 -11
0 -18 7 -9 10 -8 11 6 5 10 -3 15 -9 12 -12z m-3005 -12 c0 -5 -2 -10 -4 -10
-3 0 -8 5 -11 10 -3 6 -1 10 4 10 6 0 11 -4 11 -10z m2964 -5 c-4 -8 -11 -15
-16 -15 -6 0 -5 6 2 15 7 8 14 15 16 15 2 0 1 -7 -2 -15z m-4447 -35 c2 -20
-8 -26 -20 -13 -4 3 -2 12 4 20 15 17 14 17 16 -7z m1413 -41 c0 -11 -3 -11
-24 -3 -23 9 -20 23 4 17 11 -3 20 -9 20 -14z m2950 0 c0 -18 -20 -18 -29 0
-9 16 -8 18 9 14 11 -3 20 -9 20 -14z m-4360 -17 c0 -13 -12 -22 -22 -16 -10
6 -1 24 13 24 5 0 9 -4 9 -8z m1370 -78 c0 -2 -3 -3 -7 -2 -5 1 -21 -5 -36
-12 -19 -9 -24 -16 -15 -21 9 -6 9 -11 0 -22 -10 -12 -9 -16 5 -22 10 -5 21
-9 26 -9 4 -1 7 -5 6 -10 0 -5 5 -13 13 -18 9 -6 5 -7 -11 -3 -18 6 -22 4 -16
-6 5 -8 -1 -5 -13 5 -12 11 -22 14 -22 8 0 -6 5 -14 10 -17 6 -3 10 -11 10
-16 0 -5 -15 6 -34 25 -19 19 -38 31 -43 28 -4 -4 -2 0 5 10 9 11 10 18 2 23
-5 3 -10 1 -10 -5 0 -6 -5 -8 -10 -5 -6 4 -4 12 5 22 14 14 18 14 34 -1 23
-21 37 -5 21 23 -7 14 -7 22 1 26 5 4 8 12 6 18 -2 7 0 21 6 31 9 18 11 17 38
-14 16 -18 29 -34 29 -36z m2735 56 c3 -5 1 -10 -4 -10 -6 0 -11 5 -11 10 0 6
2 10 4 10 3 0 8 -4 11 -10z m99 -31 c-3 -5 -14 -3 -24 3 -13 9 -16 14 -7 20
13 8 39 -10 31 -23z m-293 3 c-7 -2 -18 1 -23 6 -8 8 -4 9 13 5 13 -4 18 -8
10 -11z m-2651 -12 c0 -5 -4 -10 -10 -10 -5 0 -10 5 -10 10 0 6 5 10 10 10 6
0 10 -4 10 -10z m2565 -14 c6 3 18 -3 26 -13 13 -16 12 -17 -3 -5 -9 8 -21 11
-26 8 -6 -3 -16 2 -23 12 -11 14 -11 15 0 5 7 -6 19 -9 26 -7z m-2600 -26 c3
-5 1 -10 -4 -10 -6 0 -11 5 -11 10 0 6 2 10 4 10 3 0 8 -4 11 -10z m2400 -8
c-3 -3 -11 0 -18 7 -9 10 -8 11 6 5 10 -3 15 -9 12 -12z m55 8 c0 -5 -5 -10
-11 -10 -5 0 -7 5 -4 10 3 6 8 10 11 10 2 0 4 -4 4 -10z m-3505 -21 c-4 -5
-12 -9 -18 -8 -9 0 -8 2 1 6 6 2 9 10 6 15 -4 7 -2 8 5 4 6 -4 9 -12 6 -17z
m3493 -2 c14 4 14 3 2 -5 -8 -6 -18 -8 -22 -6 -4 3 -8 2 -8 -3 0 -4 -14 -16
-30 -25 -17 -9 -30 -13 -30 -9 0 5 7 11 15 15 8 3 12 12 9 21 -3 8 -1 15 6 15
6 0 8 -4 5 -10 -3 -5 -1 -10 5 -10 6 0 14 8 17 17 4 10 8 12 10 6 3 -7 12 -9
21 -6z m-3464 -15 c3 -5 -1 -9 -9 -9 -8 0 -12 4 -9 9 3 4 7 8 9 8 2 0 6 -4 9
-8z m43 -54 c-3 -8 -6 -5 -6 6 -1 11 2 17 5 13 3 -3 4 -12 1 -19z m1027 -13
c11 -8 15 -15 9 -15 -7 0 -15 5 -18 10 -4 6 -11 8 -16 5 -5 -4 -9 -1 -9 4 0
15 11 13 34 -4z m-987 -1 c-3 -3 -12 -4 -19 -1 -8 3 -5 6 6 6 11 1 17 -2 13
-5z m26 -41 c-4 -9 -2 -14 3 -10 6 3 11 -3 11 -14 1 -11 -5 -23 -13 -26 -7 -3
-11 -9 -8 -14 3 -5 1 -9 -5 -9 -16 0 -24 21 -12 33 7 7 5 14 -7 24 -14 11 -15
12 -1 7 10 -3 19 1 22 10 4 9 9 16 11 16 3 0 2 -7 -1 -17z m3133 -19 c2 -11
-1 -12 -10 -5 -7 6 -16 8 -19 4 -4 -3 -7 -1 -7 5 0 11 22 22 29 15 3 -2 6 -10
7 -19z m-3135 -79 c-1 -5 -5 -10 -10 -10 -16 0 -25 -15 -10 -15 10 -1 8 -4 -4
-11 -26 -15 -34 -3 -14 19 10 10 14 22 10 26 -5 5 0 7 10 5 10 -2 18 -8 18
-14z m3083 -58 c1 -7 5 -18 9 -24 6 -9 3 -11 -8 -7 -8 4 -15 11 -14 18 3 24
-1 37 -11 31 -6 -4 -7 1 -3 11 6 15 7 15 16 -1 5 -9 10 -22 11 -28z m-3117
-16 c-1 -12 -6 -17 -16 -13 -9 3 -12 1 -7 -6 3 -6 2 -13 -4 -17 -6 -4 -8 -11
-5 -16 3 -5 -1 -6 -9 -3 -20 8 -20 9 6 44 25 34 37 38 35 11z m3083 -61 c0 -5
-2 -10 -4 -10 -3 0 -8 5 -11 10 -3 6 -1 10 4 10 6 0 11 -4 11 -10z m-3120 -17
c0 -3 -7 -3 -15 1 -8 3 -15 1 -15 -4 0 -6 -5 -10 -11 -10 -8 0 -8 4 1 14 10
13 40 12 40 -1z m3120 -63 c0 -5 -5 -10 -11 -10 -5 0 -7 5 -4 10 3 6 8 10 11
10 2 0 4 -4 4 -10z m-3203 -55 c0 -8 -4 -12 -9 -9 -4 3 -8 9 -8 15 0 5 4 9 8
9 5 0 9 -7 9 -15z m3258 -45 c3 -5 1 -10 -4 -10 -6 0 -11 5 -11 10 0 6 2 10 4
10 3 0 8 -4 11 -10z m-3361 -26 c3 -7 -3 -10 -15 -7 -26 7 -32 19 -9 19 11 0
22 -6 24 -12z m3346 -4 c6 -11 8 -20 6 -20 -3 0 -10 9 -16 20 -6 11 -8 20 -6
20 3 0 10 -9 16 -20z m-3304 -12 c4 -7 4 -10 -1 -6 -4 4 -15 2 -24 -5 -14 -11
-14 -10 -2 6 16 20 18 21 27 5z m3371 -80 c-3 -8 -6 -5 -6 6 -1 11 2 17 5 13
3 -3 4 -12 1 -19z m-3557 -146 c0 -1 -9 2 -19 8 -28 15 -35 12 -20 -7 12 -14
12 -16 0 -8 -11 6 -13 4 -8 -8 3 -9 1 -19 -5 -23 -7 -4 -8 -3 -4 4 4 7 3 12
-3 12 -12 0 -8 24 8 43 11 14 14 14 32 -1 10 -9 19 -18 19 -20z m4067 -44 c-2
-9 -7 -21 -11 -25 -4 -5 -7 -3 -6 2 4 20 0 35 -11 35 -5 0 -7 -5 -3 -12 5 -7
3 -8 -6 -3 -8 5 -18 1 -27 -10 -7 -11 -13 -13 -13 -7 0 19 4 27 13 25 4 -2 7
1 7 5 0 5 13 8 30 8 23 0 29 -4 27 -18z m192 -3 c11 -11 12 -18 4 -26 -8 -8
-13 -7 -18 2 -5 8 -4 10 3 5 7 -4 12 -3 12 3 0 15 -23 26 -28 13 -2 -7 -9 -12
-14 -12 -6 0 -8 3 -5 7 4 3 2 12 -4 19 -16 19 30 9 50 -11z m38 -11 c2 -13 1
-15 -4 -4 -3 8 -11 19 -17 23 -7 6 -6 7 4 4 8 -2 16 -12 17 -23z m-607 12 c0
-3 -4 -8 -10 -11 -5 -3 -10 -1 -10 4 0 6 5 11 10 11 6 0 10 -2 10 -4z m510 0
c0 -2 -7 -9 -15 -16 -13 -11 -14 -10 -9 4 5 14 24 23 24 12z m-293 -47 c-2
-10 -7 -22 -11 -26 -4 -5 -6 -1 -4 7 2 8 -3 14 -9 15 -7 0 -12 5 -10 10 1 6 6
9 11 7 5 -2 6 5 2 14 -5 14 -4 15 9 4 8 -6 13 -20 12 -31z m-121 -28 c1 -6 0
-7 -2 -2 -3 6 -12 7 -20 4 -8 -3 -14 -1 -14 5 0 14 33 8 36 -7z m749 -59 c-2
-2 6 -13 18 -23 12 -10 20 -19 17 -19 -37 -9 -41 -8 -30 5 8 10 7 14 -2 17 -7
3 -19 -2 -26 -11 -11 -14 -12 -13 -3 5 6 12 6 26 0 35 -7 12 -9 12 -9 0 0 -8
-2 -12 -5 -9 -3 3 -3 13 1 22 6 16 8 16 25 0 11 -10 17 -19 14 -22z m-55 13
c0 -2 -6 -5 -13 -8 -8 -3 -14 1 -14 8 0 7 6 11 14 8 7 -3 13 -6 13 -8z m111
-122 c13 -16 12 -17 -3 -4 -10 7 -18 15 -18 17 0 8 8 3 21 -13z m74 -132 c3
-5 2 -12 -3 -15 -5 -3 -9 1 -9 9 0 17 3 19 12 6z m-3739 -99 c-10 -2 -22 0
-28 6 -6 6 0 7 19 4 21 -5 23 -7 9 -10z m64 12 c0 -8 -19 -13 -24 -6 -3 5 1 9
9 9 8 0 15 -2 15 -3z m37 0 c-3 -4 -1 -16 5 -27 10 -19 12 -19 23 -4 11 15 14
16 25 2 11 -13 10 -14 -5 -9 -12 5 -16 4 -12 -3 4 -6 0 -16 -7 -22 -10 -8 -16
-9 -21 -1 -3 6 -12 7 -18 3 -9 -5 -9 -3 0 8 7 9 8 20 3 29 -9 14 -5 30 7 30 4
0 3 -3 0 -6z m103 -20 c0 -8 -19 -13 -24 -6 -3 5 1 9 9 9 8 0 15 -2 15 -3z
m930 -29 c0 -2 -9 -3 -19 -2 -11 0 -18 5 -15 9 4 6 34 0 34 -7z m70 5 c0 -5
-2 -10 -4 -10 -3 0 -8 5 -11 10 -3 6 -1 10 4 10 6 0 11 -4 11 -10z m-2056 -33
c5 -26 -7 -37 -19 -17 -3 6 -2 10 3 10 6 0 8 10 5 23 -3 12 -3 20 0 17 3 -3 8
-18 11 -33z m2106 11 c0 6 8 12 17 12 15 0 14 -2 -2 -14 -21 -15 -35 -12 -35
7 0 7 4 6 10 -3 6 -10 10 -11 10 -2z m-1450 -8 c0 -5 -5 -10 -11 -10 -5 0 -7
5 -4 10 3 6 8 10 11 10 2 0 4 -4 4 -10z m1543 -27 c-3 -7 -10 -10 -16 -6 -8 5
-8 8 0 10 7 3 9 12 6 21 -4 14 -3 14 5 3 6 -8 8 -20 5 -28z m2437 23 c0 -3 -4
-8 -10 -11 -5 -3 -10 -1 -10 4 0 6 5 11 10 11 6 0 10 -2 10 -4z m-4539 -23
c13 -16 12 -17 -3 -4 -10 7 -18 15 -18 17 0 8 8 3 21 -13z m-37 -17 c-7 -18
-20 -21 -29 -6 -3 6 1 10 9 10 9 0 16 5 16 12 0 6 2 9 5 6 3 -3 3 -13 -1 -22z
m551 14 c-3 -5 -12 -10 -18 -10 -7 0 -6 4 3 10 19 12 23 12 15 0z m668 -5 c-3
-9 -8 -14 -10 -11 -3 3 -2 9 2 15 9 16 15 13 8 -4z m1009 3 c-7 -7 -12 -16
-12 -22 0 -6 5 -5 12 2 15 15 28 15 28 0 0 -6 -3 -8 -7 -5 -3 4 -13 2 -20 -5
-11 -9 -17 -9 -24 3 -12 19 -11 32 1 24 6 -3 10 -1 10 4 0 6 5 11 12 11 9 0 9
-3 0 -12z m-937 -17 c-8 -15 -42 -19 -42 -6 0 7 8 10 20 7 15 -4 18 -2 12 8
-5 9 -4 11 4 6 6 -4 9 -11 6 -15z m107 -9 c-7 -2 -9 -9 -5 -15 3 -7 2 -8 -2
-4 -16 14 -14 36 3 29 10 -4 12 -7 4 -10z m178 8 c0 -5 -5 -10 -11 -10 -5 0
-7 5 -4 10 3 6 8 10 11 10 2 0 4 -4 4 -10z m23 -5 c-3 -9 -8 -14 -10 -11 -3 3
-2 9 2 15 9 16 15 13 8 -4z m34 -3 c1 -10 -5 -19 -12 -19 -10 0 -11 5 -4 19 5
10 11 18 12 18 2 0 3 -8 4 -18z m-263 -17 c3 -8 1 -15 -4 -15 -6 0 -10 7 -10
15 0 8 2 15 4 15 2 0 6 -7 10 -15z m998 -10 c3 3 8 -1 12 -10 4 -13 2 -14 -14
-5 -15 8 -21 6 -29 -7 -8 -15 -12 -16 -23 -4 -8 8 -8 11 -1 7 18 -10 26 13 11
31 -12 15 -10 15 13 0 14 -10 28 -15 31 -12z m2208 21 c0 -2 -7 -7 -16 -10 -8
-3 -12 -2 -9 4 6 10 25 14 25 6z m-4140 -10 c0 -2 -8 -10 -17 -17 -16 -13 -17
-12 -4 4 13 16 21 21 21 13z m-340 -18 c0 -9 3 -9 12 0 16 16 25 15 25 -2 0
-8 -6 -12 -13 -9 -6 2 -15 -1 -19 -7 -5 -8 -11 -8 -21 1 -7 6 -11 15 -8 20 8
13 24 11 24 -3z m114 -20 c-3 -4 -11 -8 -17 -7 -9 0 -9 2 0 5 7 3 9 13 6 22
-4 14 -3 14 5 2 6 -8 8 -18 6 -22z m143 25 c-4 -3 -2 -12 5 -20 8 -10 8 -17 0
-25 -12 -12 -32 -3 -32 15 0 7 4 6 10 -3 5 -8 12 -11 16 -7 4 3 2 13 -4 20
-11 12 -7 27 6 27 3 0 2 -3 -1 -7z m-37 -7 c0 -2 -8 -10 -17 -17 -16 -13 -17
-12 -4 4 13 16 21 21 21 13z m2120 -98 c0 -5 5 -6 12 -2 7 4 8 3 4 -4 -8 -14
-33 -5 -40 13 -3 9 0 12 10 8 7 -3 14 -9 14 -15z m70 -98 c-10 -6 -11 -10 -2
-10 6 0 11 -3 11 -7 -4 -22 2 -33 14 -27 8 5 8 2 -2 -9 -16 -20 -9 -22 22 -6
18 9 20 9 10 -1 -6 -7 -23 -14 -37 -15 -20 -3 -24 1 -21 17 3 11 0 28 -5 38
-10 18 -4 30 14 30 6 0 4 -5 -4 -10z m1889 -153 c0 -9 -2 -8 -6 1 -2 6 -10 9
-15 6 -7 -4 -8 -2 -4 5 9 13 26 5 25 -12z m-1794 -49 c-19 -11 -30 -5 -21 11
4 6 14 7 22 4 15 -5 14 -7 -1 -15z m52 -55 c-4 -3 -1 -13 6 -22 11 -14 10 -15
-7 -1 -18 14 -19 13 -13 -2 3 -10 2 -20 -3 -23 -16 -10 -16 30 0 42 16 13 28
17 17 6z m63 -3 c0 -5 -2 -10 -4 -10 -3 0 -8 5 -11 10 -3 6 -1 10 4 10 6 0 11
-4 11 -10z m1583 -36 c-8 -21 -32 -25 -30 -6 0 10 9 18 18 18 9 0 15 -6 12
-12z m-1586 -49 c0 -8 -4 -15 -9 -15 -4 0 -8 7 -8 15 0 8 4 15 8 15 5 0 9 -7
9 -15z m1483 10 c0 -7 -30 -13 -34 -7 -3 4 4 9 15 9 10 1 19 0 19 -2z m-1500
-52 c0 -19 -13 -9 -16 12 -1 8 2 13 7 9 5 -3 9 -12 9 -21z m56 -35 c-7 -33
-23 -61 -30 -50 -3 6 -1 14 4 17 7 5 5 12 -7 21 -15 11 -15 13 -2 8 10 -3 20
-1 24 5 8 15 14 14 11 -1z m1352 -2 c-7 -8 -15 -12 -17 -11 -5 6 10 25 20 25
5 0 4 -6 -3 -14z m45 2 c-4 -7 -8 -16 -8 -20 0 -16 -13 -17 -26 -1 -7 10 -10
15 -5 11 5 -4 15 -1 23 7 18 18 27 19 16 3z m-168 -78 c-3 -5 -12 -10 -18 -10
-7 0 -6 4 3 10 19 12 23 12 15 0z m-1185 -37 c10 10 11 9 4 -3 -5 -8 -7 -24
-5 -35 2 -11 -1 -16 -6 -12 -4 5 -8 12 -8 15 -1 4 -6 18 -13 32 -11 22 -11 23
1 8 11 -14 16 -15 27 -5z m1123 -8 c-3 -9 -8 -14 -10 -11 -3 3 -2 9 2 15 9 16
15 13 8 -4z m-19 -37 c-3 -4 1 -8 8 -9 10 0 10 -2 0 -6 -6 -2 -9 -10 -5 -16 3
-7 2 -8 -3 -4 -5 5 -9 12 -9 15 0 4 -3 12 -7 18 -4 6 -1 11 7 11 8 0 12 -4 9
-9z m-1028 -40 c3 -4 -1 -5 -10 -4 -8 1 -18 5 -22 8 -3 4 1 5 10 4 8 -1 18 -5
22 -8z m35 -45 c13 -16 12 -17 -3 -4 -17 13 -22 21 -14 21 2 0 10 -8 17 -17z
m-21 -7 c0 -2 -7 -7 -16 -10 -8 -3 -12 -2 -9 4 6 10 25 14 25 6z m760 -126 c0
-5 -7 -7 -15 -4 -8 4 -15 8 -15 10 0 2 7 4 15 4 8 0 15 -4 15 -10z m-3 -23 c2
-2 -2 -9 -10 -15 -10 -8 -16 -6 -25 8 -10 16 -9 18 10 15 11 -3 22 -6 25 -8z
m-452 -87 c15 0 28 -27 19 -41 -3 -5 -15 -4 -27 3 -12 7 -25 11 -29 10 -3 -1
-12 5 -18 13 -10 12 -10 15 2 15 8 0 20 -6 27 -12 11 -11 12 -8 7 12 -3 14 -3
19 0 13 3 -7 12 -13 19 -13z m105 -32 c0 -4 -4 -8 -9 -8 -6 0 -12 4 -15 8 -3
5 1 9 9 9 8 0 15 -4 15 -9z m60 -16 c0 -13 -12 -22 -22 -16 -10 6 -1 24 13 24
5 0 9 -4 9 -8z"/>
<path d="M4655 6210 c3 -5 8 -10 11 -10 2 0 4 5 4 10 0 6 -5 10 -11 10 -5 0
-7 -4 -4 -10z"/>
<path d="M5186 5630 c5 -8 9 -18 9 -22 0 -3 3 -9 7 -13 3 -4 5 0 4 9 -1 9 -8
22 -16 29 -10 10 -11 9 -4 -3z"/>
<path d="M2500 3334 c-8 -11 -10 -16 -5 -11 4 4 18 -1 29 -10 13 -12 17 -13
10 -3 -6 8 -13 21 -16 29 -3 10 -7 9 -18 -5z"/>
<path d="M2526 3244 c-20 -30 -20 -38 2 -55 15 -13 16 -12 3 3 -7 10 -10 25
-7 34 5 14 9 14 23 3 10 -8 14 -9 10 -2 -4 7 0 16 10 22 10 6 16 11 13 11 -32
7 -41 5 -54 -16z"/>
<path d="M2473 3094 c0 -17 2 -22 7 -13 5 6 6 18 3 26 -8 19 -10 16 -10 -13z"/>
<path d="M2445 3090 c3 -5 8 -10 11 -10 2 0 4 5 4 10 0 6 -5 10 -11 10 -5 0
-7 -4 -4 -10z"/>
<path d="M2500 3089 c0 -5 5 -7 10 -4 6 3 10 8 10 11 0 2 -4 4 -10 4 -5 0 -10
-5 -10 -11z"/>
<path d="M2380 3050 c0 -6 -6 -8 -12 -4 -10 5 -10 4 -1 -6 6 -7 9 -20 6 -29
-4 -13 -2 -13 7 2 12 19 30 23 30 6 0 -5 -4 -7 -10 -4 -5 3 -10 1 -10 -4 0
-14 17 -14 25 0 4 6 -2 19 -14 30 -12 11 -21 15 -21 9z"/>
<path d="M2460 3050 c-12 -7 -10 -9 7 -7 12 0 19 5 17 9 -6 10 -6 10 -24 -2z"/>
<path d="M2390 2820 c0 -5 5 -10 11 -10 5 0 7 5 4 10 -3 6 -8 10 -11 10 -2 0
-4 -4 -4 -10z"/>
<path d="M2356 2912 c-3 -6 -1 -12 5 -14 8 -3 6 -10 -5 -21 -10 -9 -12 -17 -6
-17 6 0 13 7 16 15 4 8 11 12 18 8 6 -4 4 2 -4 13 -8 10 -15 20 -16 22 -1 2
-5 -1 -8 -6z"/>
<path d="M2308 2817 c7 -8 8 -18 4 -22 -4 -5 -1 -4 7 0 11 6 13 4 8 -7 -8 -22
3 -30 20 -16 11 9 17 9 24 -3 5 -8 9 -9 9 -3 0 6 -19 23 -42 38 -23 15 -36 21
-30 13z"/>
<path d="M1352 2685 c4 -4 3 -14 -4 -22 -8 -11 -7 -12 6 -7 19 7 21 20 4 30
-7 4 -10 4 -6 -1z"/>
<path d="M1996 1458 c3 -5 10 -6 15 -3 13 9 11 12 -6 12 -8 0 -12 -4 -9 -9z"/>
<path d="M4274 219 c-4 -7 -3 -9 4 -5 5 3 13 0 15 -6 4 -9 6 -10 6 -1 1 17
-16 25 -25 12z"/>
<path d="M3753 6623 c9 -15 -41 -43 -62 -35 -12 4 -12 3 0 -10 11 -13 16 -13
27 -1 15 14 36 18 28 5 -3 -5 4 -8 16 -7 25 2 40 26 28 45 -8 12 -10 12 -10 1
0 -11 -3 -11 -17 0 -10 9 -14 9 -10 2z m20 -27 c4 -10 1 -13 -8 -9 -8 3 -12 9
-9 14 7 12 11 11 17 -5z"/>
<path d="M3645 6576 c10 -15 22 -23 31 -19 8 3 14 6 12 7 -2 1 -16 10 -31 20
l-28 17 16 -25z"/>
<path d="M4236 6583 c-6 -15 10 -33 31 -34 5 0 14 -5 21 -11 6 -6 12 -8 12 -4
0 4 13 0 29 -8 25 -13 30 -13 47 0 18 14 18 14 -3 4 -18 -8 -23 -8 -23 4 0 7
-7 17 -16 20 -9 3 -12 11 -8 18 4 7 4 10 -1 6 -4 -4 -15 -2 -24 5 -14 10 -14
10 -4 -3 8 -10 9 -21 3 -30 -8 -12 -10 -12 -10 3 0 10 -4 16 -9 12 -5 -3 -12
3 -14 12 -4 17 -5 17 -6 0 0 -10 -5 -16 -11 -12 -5 3 -7 12 -3 20 3 8 3 15 0
15 -3 0 -8 -8 -11 -17z m94 -38 c11 -13 10 -14 -4 -9 -9 3 -16 10 -16 15 0 13
6 11 20 -6z"/>
<path d="M3581 6564 c0 -11 3 -14 6 -6 3 7 2 16 -1 19 -3 4 -6 -2 -5 -13z"/>
<path d="M4347 6569 c7 -7 15 -10 18 -7 3 3 -2 9 -12 12 -14 6 -15 5 -6 -5z"/>
<path d="M3478 6496 c-15 -18 -19 -19 -28 -6 -5 8 -10 10 -10 5 0 -6 5 -16 12
-23 8 -8 16 -6 30 10 11 13 18 16 18 8 0 -7 3 -11 6 -7 3 3 2 12 -3 20 -7 12
-11 11 -25 -7z"/>
<path d="M3391 6483 c7 -12 15 -20 18 -17 3 2 -3 12 -13 22 -17 16 -18 16 -5
-5z"/>
<path d="M4475 6481 c-6 -11 13 -26 22 -17 4 3 1 6 -6 6 -7 0 -9 5 -6 10 3 6
4 10 1 10 -3 0 -7 -4 -11 -9z"/>
<path d="M4510 6451 c0 -6 4 -13 10 -16 6 -3 7 1 4 9 -7 18 -14 21 -14 7z"/>
<path d="M3220 6390 c-8 -5 -10 -10 -5 -10 6 0 17 5 25 10 8 5 11 10 5 10 -5
0 -17 -5 -25 -10z"/>
<path d="M4616 6348 c3 -4 11 -5 19 -1 21 7 19 12 -4 10 -11 0 -18 -5 -15 -9z"/>
<path d="M3170 6335 c-7 -9 -8 -15 -2 -15 5 0 12 7 16 15 3 8 4 15 2 15 -2 0
-9 -7 -16 -15z"/>
<path d="M4710 6331 c0 -6 4 -13 10 -16 6 -3 7 1 4 9 -7 18 -14 21 -14 7z"/>
<path d="M4600 6287 c0 -8 7 -14 15 -14 11 0 12 4 4 14 -6 7 -13 13 -15 13 -2
0 -4 -6 -4 -13z"/>
<path d="M3053 6259 c-2 -23 3 -25 10 -4 4 8 3 16 -1 19 -4 3 -9 -4 -9 -15z"/>
<path d="M3020 6230 c-9 -6 -10 -10 -3 -10 6 0 15 5 18 10 8 12 4 12 -15 0z"/>
<path d="M2955 6159 c-4 -6 -5 -12 -2 -15 2 -3 7 2 10 11 7 17 1 20 -8 4z"/>
<path d="M4779 6158 c-5 -18 -6 -38 -1 -34 7 8 12 36 6 36 -2 0 -4 -1 -5 -2z"/>
<path d="M2870 6130 c0 -5 5 -10 11 -10 5 0 7 5 4 10 -3 6 -8 10 -11 10 -2 0
-4 -4 -4 -10z"/>
<path d="M4757 6062 c10 -7 17 -15 16 -17 -2 -3 0 -5 4 -6 4 0 9 4 11 10 2 6
-2 11 -10 11 -10 0 -10 2 1 9 10 7 6 9 -13 8 -24 -2 -25 -3 -9 -15z"/>
<path d="M4795 6000 c-3 -5 -1 -10 4 -10 6 0 11 5 11 10 0 6 -2 10 -4 10 -3 0
-8 -4 -11 -10z"/>
<path d="M2573 5945 c0 -8 4 -12 9 -9 5 3 6 10 3 15 -9 13 -12 11 -12 -6z"/>
<path d="M4896 5928 c3 -5 10 -6 15 -3 13 9 11 12 -6 12 -8 0 -12 -4 -9 -9z"/>
<path d="M4854 5905 c-4 -8 -10 -13 -14 -10 -5 3 -12 0 -16 -7 -4 -7 -3 -10 1
-5 5 4 16 0 25 -8 15 -14 18 -14 30 0 7 9 10 18 6 22 -3 3 -6 1 -6 -6 0 -7 -4
-10 -10 -6 -5 3 -7 12 -3 20 3 8 2 15 -1 15 -4 0 -9 -7 -12 -15z"/>
<path d="M2506 5892 c-3 -5 1 -9 9 -9 8 0 12 4 9 9 -3 4 -7 8 -9 8 -2 0 -6 -4
-9 -8z"/>
<path d="M2510 5830 c-6 -11 -15 -18 -20 -15 -6 3 -7 -1 -4 -9 8 -21 17 -20
40 6 10 12 13 18 5 13 -11 -6 -13 -4 -8 8 9 24 0 21 -13 -3z"/>
<path d="M2450 5811 c0 -6 4 -13 10 -16 6 -3 7 1 4 9 -7 18 -14 21 -14 7z"/>
<path d="M2470 5770 c0 -5 5 -10 10 -10 6 0 10 5 10 10 0 6 -4 10 -10 10 -5 0
-10 -4 -10 -10z"/>
<path d="M2491 5759 c-10 -17 -15 -19 -29 -8 -9 8 -14 9 -10 5 4 -5 0 -15 -10
-22 -16 -13 -15 -14 4 -11 27 4 80 42 68 50 -6 3 -16 -3 -23 -14z"/>
<path d="M5066 5771 c-4 -5 -2 -12 4 -16 5 -3 10 -3 10 0 0 3 10 -6 23 -21
l23 -26 -2 28 c-2 46 -4 50 -13 35 -8 -12 -12 -12 -24 -2 -10 7 -18 8 -21 2z
m54 -21 c0 -5 -5 -10 -11 -10 -5 0 -7 5 -4 10 3 6 8 10 11 10 2 0 4 -4 4 -10z"/>
<path d="M5225 5650 c-3 -6 1 -7 9 -4 18 7 21 14 7 14 -6 0 -13 -4 -16 -10z"/>
<path d="M5246 5557 c3 -10 9 -15 12 -12 3 3 0 11 -7 18 -10 9 -11 8 -5 -6z"/>
<path d="M5236 5457 c3 -8 1 -18 -5 -22 -8 -4 -8 -12 -1 -26 6 -11 16 -16 22
-13 7 5 5 12 -7 21 -11 7 -13 13 -7 13 14 0 16 26 2 35 -5 3 -7 0 -4 -8z"/>
<path d="M2313 5445 c-4 -5 -3 -7 2 -3 4 4 15 3 25 -2 11 -6 17 -5 17 3 0 15
-36 17 -44 2z"/>
<path d="M5264 5441 c0 -11 5 -17 13 -14 10 4 11 9 2 19 -15 18 -15 18 -15 -5z"/>
<path d="M2286 5375 c-11 -8 -15 -15 -9 -15 6 0 16 7 23 15 16 19 11 19 -14 0z"/>
<path d="M5255 5370 c3 -5 8 -10 11 -10 2 0 4 5 4 10 0 6 -5 10 -11 10 -5 0
-7 -4 -4 -10z"/>
<path d="M5205 5330 c-3 -5 -1 -10 4 -10 6 0 11 5 11 10 0 6 -2 10 -4 10 -3 0
-8 -4 -11 -10z"/>
<path d="M5233 5320 c-1 -11 2 -20 5 -20 4 0 8 9 9 20 1 11 -2 20 -5 20 -4 0
-8 -9 -9 -20z"/>
<path d="M5193 5243 c-3 -7 -10 -10 -16 -6 -6 4 -7 1 -2 -7 6 -10 11 -10 20 3
7 9 14 14 17 11 4 -3 8 -1 12 4 3 5 -2 9 -10 9 -9 0 -18 -6 -21 -14z"/>
<path d="M5125 5220 c-10 -11 -14 -20 -9 -21 5 0 19 -2 30 -3 23 -3 26 16 8
34 -7 7 -16 4 -29 -10z m29 1 c3 -5 -1 -11 -9 -14 -9 -4 -12 -1 -8 9 6 16 10
17 17 5z"/>
<path d="M5095 5173 c-14 -11 -15 -14 -4 -10 9 3 21 1 27 -5 7 -7 10 -6 8 5
-3 25 -9 27 -31 10z"/>
<path d="M5101 5134 c0 -11 3 -14 6 -6 3 7 2 16 -1 19 -3 4 -6 -2 -5 -13z"/>
<path d="M2214 5133 c4 -4 16 -8 28 -10 28 -4 18 6 -12 12 -12 2 -20 1 -16 -2z"/>
<path d="M5072 5090 c0 -14 2 -19 5 -12 2 6 2 18 0 25 -3 6 -5 1 -5 -13z"/>
<path d="M5210 4730 c-9 -6 -10 -10 -3 -10 6 0 15 5 18 10 8 12 4 12 -15 0z"/>
<path d="M2173 4702 c0 -12 5 -22 9 -22 11 0 10 12 -2 30 -7 12 -9 10 -7 -8z"/>
<path d="M5185 4700 c-2 -3 -2 -15 0 -26 2 -10 4 -22 4 -26 1 -5 6 -8 12 -8 6
0 7 5 2 13 -4 6 -9 20 -10 30 -3 15 -1 16 11 5 8 -7 12 -16 10 -20 -2 -4 -1
-9 4 -12 4 -2 8 8 7 23 0 19 -5 27 -18 27 -10 0 -20 -3 -22 -6z"/>
<path d="M2186 4634 c-23 -23 -20 -30 4 -9 11 10 20 20 20 22 0 7 -9 2 -24
-13z"/>
<path d="M2190 4607 c-24 -19 -22 -36 3 -30 16 3 18 2 9 -5 -11 -7 -10 -10 3
-16 14 -5 16 -2 10 16 -3 13 -7 29 -7 36 -1 6 -2 12 -2 12 -1 0 -8 -6 -16 -13z"/>
<path d="M5249 4573 c-13 -16 -12 -17 4 -4 9 7 17 15 17 17 0 8 -8 3 -21 -13z"/>
<path d="M2165 4549 c-4 -6 -5 -12 -2 -15 2 -3 7 2 10 11 7 17 1 20 -8 4z"/>
<path d="M2160 4490 c-9 -6 -10 -10 -3 -10 6 0 15 5 18 10 8 12 4 12 -15 0z"/>
<path d="M5220 4466 c0 -2 7 -7 16 -10 8 -3 12 -2 9 4 -6 10 -25 14 -25 6z"/>
<path d="M5426 4447 c-16 -12 -16 -13 2 -13 10 0 19 6 19 13 0 7 -1 13 -2 13
-1 0 -9 -6 -19 -13z"/>
<path d="M5360 4430 c-9 -6 -10 -10 -3 -10 6 0 15 5 18 10 8 12 4 12 -15 0z"/>
<path d="M5350 4399 c0 -5 5 -7 10 -4 6 3 10 8 10 11 0 2 -4 4 -10 4 -5 0 -10
-5 -10 -11z"/>
<path d="M5244 4392 c3 -5 0 -12 -6 -15 -7 -2 -10 -7 -7 -11 3 -4 12 0 18 8 9
11 9 16 0 22 -7 4 -9 3 -5 -4z"/>
<path d="M5566 4392 c-2 -4 -1 -14 3 -21 6 -10 10 -9 14 3 6 16 -8 32 -17 18z"/>
<path d="M2186 4367 c2 -14 -1 -17 -15 -12 -12 3 -21 0 -25 -10 -3 -9 -11 -13
-17 -9 -8 4 -9 3 -5 -4 4 -7 1 -12 -9 -12 -9 0 -13 5 -10 10 3 6 1 10 -5 10
-7 0 -9 -7 -6 -16 5 -14 4 -15 -8 -5 -12 10 -14 9 -11 -6 1 -10 9 -16 16 -14
8 2 20 4 27 4 6 0 12 5 12 10 0 5 6 4 14 -2 10 -9 19 -4 38 21 37 49 38 54 18
54 -12 0 -17 -6 -14 -19z m-20 -42 c-3 -9 -11 -13 -16 -10 -8 5 -7 11 1 21 14
18 24 11 15 -11z"/>
<path d="M1843 4368 c-8 -13 -9 -18 -12 -39 0 -6 -11 -8 -23 -5 -13 3 -17 3
-10 0 6 -3 9 -11 6 -16 -4 -7 -2 -8 5 -4 6 4 18 3 25 -3 10 -8 12 -3 11 22 -1
17 2 38 8 45 5 6 7 12 4 12 -3 0 -9 -6 -14 -12z"/>
<path d="M1936 4372 c-3 -5 1 -9 9 -9 8 0 12 4 9 9 -3 4 -7 8 -9 8 -2 0 -6 -4
-9 -8z"/>
<path d="M5650 4371 c0 -6 4 -13 10 -16 6 -3 7 1 4 9 -7 18 -14 21 -14 7z"/>
<path d="M1796 4352 c-3 -5 1 -9 9 -9 8 0 12 4 9 9 -3 4 -7 8 -9 8 -2 0 -6 -4
-9 -8z"/>
<path d="M2020 4333 c0 -13 29 -32 35 -23 3 5 1 10 -5 10 -6 0 -9 4 -6 8 3 5
-1 9 -9 9 -8 0 -15 -2 -15 -4z"/>
<path d="M5710 4321 c0 -10 19 -25 25 -20 1 2 -3 10 -11 17 -8 7 -14 8 -14 3z"/>
<path d="M5741 4274 c12 -15 11 -16 -11 -9 -22 7 -23 6 -11 -9 9 -11 17 -13
26 -6 6 5 16 6 21 2 5 -4 0 3 -10 16 -11 12 -21 22 -24 22 -2 0 2 -7 9 -16z"/>
<path d="M1477 4224 c-3 -3 -4 -16 -1 -28 2 -15 -1 -23 -12 -23 -8 0 -13 6
-10 14 4 8 1 11 -5 8 -6 -4 -8 -13 -5 -21 6 -16 -10 -19 -17 -4 -3 6 -4 5 -3
-2 2 -11 26 -15 58 -9 5 1 7 71 2 71 0 0 -3 -3 -7 -6z"/>
<path d="M1430 4209 c0 -5 5 -7 10 -4 6 3 10 8 10 11 0 2 -4 4 -10 4 -5 0 -10
-5 -10 -11z"/>
<path d="M1395 4191 c-3 -5 -2 -12 3 -15 5 -3 9 1 9 9 0 17 -3 19 -12 6z"/>
<path d="M5850 4179 c0 -5 -4 -8 -9 -4 -5 3 -12 1 -15 -4 -4 -5 2 -8 11 -7 15
3 33 26 19 26 -3 0 -6 -5 -6 -11z"/>
<path d="M1387 4153 c5 -12 3 -14 -7 -8 -8 5 -11 4 -6 -3 3 -6 2 -13 -4 -17
-5 -3 -10 -2 -10 3 0 6 -7 12 -15 16 -8 3 -14 2 -14 -2 3 -20 -3 -23 -18 -11
-16 13 -17 12 -5 -3 9 -11 10 -18 2 -23 -5 -3 -13 1 -16 9 -3 9 -10 16 -16 16
-5 0 -6 -5 -2 -12 5 -8 2 -9 -12 -4 -18 7 -18 6 1 -12 11 -10 22 -15 23 -10 2
4 7 6 12 3 5 -3 14 1 22 8 7 7 20 13 28 13 17 0 60 25 60 35 0 4 -7 9 -14 12
-11 4 -13 1 -9 -10z"/>
<path d="M1173 4075 c0 -8 4 -12 9 -9 5 3 6 10 3 15 -9 13 -12 11 -12 -6z"/>
<path d="M1125 4050 c-3 -6 1 -7 9 -4 18 7 21 14 7 14 -6 0 -13 -4 -16 -10z"/>
<path d="M5975 4041 c-3 -5 -2 -12 3 -15 5 -3 9 1 9 9 0 17 -3 19 -12 6z"/>
<path d="M1102 4004 c-7 -8 -10 -19 -7 -24 11 -17 -7 -11 -22 8 -12 15 -12 13
-1 -11 l11 -27 23 21 c12 12 20 27 17 35 -6 17 -5 17 -21 -2z"/>
<path d="M5950 4012 c0 -4 10 -9 22 -9 18 -2 20 0 8 7 -18 12 -30 13 -30 2z"/>
<path d="M1024 3989 c-4 -7 -3 -9 4 -5 5 3 13 0 15 -6 4 -9 6 -10 6 -1 1 17
-16 25 -25 12z"/>
<path d="M5955 3980 c3 -5 8 -10 11 -10 2 0 4 5 4 10 0 6 -5 10 -11 10 -5 0
-7 -4 -4 -10z"/>
<path d="M6015 3950 c3 -5 8 -10 11 -10 2 0 4 5 4 10 0 6 -5 10 -11 10 -5 0
-7 -4 -4 -10z"/>
<path d="M6050 3881 c0 -6 4 -13 10 -16 6 -3 7 1 4 9 -7 18 -14 21 -14 7z"/>
<path d="M6040 3830 c-13 -8 -13 -10 2 -10 9 0 20 5 23 10 8 13 -5 13 -25 0z"/>
<path d="M879 3801 c10 -7 11 -13 2 -30 -13 -24 -23 -28 -15 -6 4 8 2 15 -4
15 -11 0 -10 -25 1 -36 14 -14 7 -26 -8 -14 -13 11 -14 10 -9 -5 5 -13 4 -16
-4 -11 -7 4 -12 2 -12 -3 0 -14 6 -14 41 4 16 9 27 20 24 25 -4 6 1 13 10 16
12 5 13 9 4 20 -6 8 -8 14 -3 14 12 0 -19 20 -31 20 -5 0 -4 -4 4 -9z m13 -44
c-7 -8 -8 -18 -4 -22 4 -5 1 -5 -5 -1 -10 5 -10 11 -1 26 7 11 14 17 17 15 2
-3 -1 -11 -7 -18z"/>
<path d="M6073 3681 c1 -15 4 -17 19 -7 23 14 23 21 -1 23 -13 1 -19 -4 -18
-16z"/>
<path d="M819 3688 c-8 -27 -5 -35 12 -31 25 7 33 20 18 29 -8 4 -9 3 -5 -4 4
-7 1 -12 -9 -12 -9 0 -13 5 -10 10 3 6 4 10 1 10 -3 0 -6 -1 -7 -2z"/>
<path d="M800 3625 c-7 -9 -8 -15 -2 -15 5 0 12 7 16 15 3 8 4 15 2 15 -2 0
-9 -7 -16 -15z"/>
<path d="M6110 3630 c0 -5 5 -10 11 -10 5 0 7 5 4 10 -3 6 -8 10 -11 10 -2 0
-4 -4 -4 -10z"/>
<path d="M810 3551 c0 -7 -5 -9 -12 -5 -7 4 -5 -2 6 -14 21 -25 44 -19 24 6
-7 10 -14 19 -15 21 -2 2 -3 -1 -3 -8z"/>
<path d="M6060 3523 c0 -6 9 -9 20 -6 30 8 33 21 5 19 -14 0 -25 -6 -25 -13z"/>
<path d="M795 3500 c-4 -6 -11 -7 -17 -4 -7 4 -8 2 -4 -4 7 -12 36 -5 36 9 0
12 -7 11 -15 -1z"/>
<path d="M812 3479 c-12 -19 -11 -19 8 -9 11 6 18 15 15 21 -8 12 -8 12 -23
-12z"/>
<path d="M6077 3433 c-10 -10 -8 -23 4 -23 5 0 8 4 5 9 -4 5 0 12 6 14 7 3 8
6 2 6 -6 1 -14 -2 -17 -6z"/>
<path d="M792 3404 c10 -10 20 -16 22 -13 3 3 -5 11 -17 18 -21 13 -21 12 -5
-5z"/>
<path d="M6025 3382 c3 -17 -2 -23 -21 -28 -14 -4 -22 -9 -19 -12 3 -3 -1 -13
-9 -21 -16 -17 -4 -53 11 -37 4 5 2 11 -5 13 -6 3 -9 9 -6 14 3 6 12 5 22 -3
15 -12 15 -11 4 4 -11 14 -10 18 10 29 13 7 26 12 30 11 10 -2 3 27 -10 40 -9
9 -11 6 -7 -10z"/>
<path d="M810 3352 c0 -4 10 -9 22 -9 18 -2 20 0 8 7 -18 12 -30 13 -30 2z"/>
<path d="M6020 3330 c-9 -6 -10 -10 -3 -10 6 0 15 5 18 10 8 12 4 12 -15 0z"/>
<path d="M815 3290 c3 -5 8 -10 11 -10 2 0 4 5 4 10 0 6 -5 10 -11 10 -5 0 -7
-4 -4 -10z"/>
<path d="M5970 3236 c0 -2 7 -7 16 -10 8 -3 12 -2 9 4 -6 10 -25 14 -25 6z"/>
<path d="M890 3212 c0 -8 -5 -10 -12 -6 -6 4 -4 -3 5 -15 8 -13 13 -31 10 -40
-4 -14 -3 -14 6 -1 9 12 11 13 11 1 0 -8 3 -11 6 -8 4 4 1 13 -5 21 -7 8 -10
19 -8 24 3 4 2 14 -4 22 -6 11 -9 12 -9 2z"/>
<path d="M840 3190 c8 -5 20 -10 25 -10 6 0 3 5 -5 10 -8 5 -19 10 -25 10 -5
0 -3 -5 5 -10z"/>
<path d="M5776 3117 c3 -10 9 -15 12 -12 3 3 0 11 -7 18 -10 9 -11 8 -5 -6z"/>
<path d="M5745 3099 c-11 -16 -1 -19 13 -3 7 8 8 14 3 14 -5 0 -13 -5 -16 -11z"/>
<path d="M913 3085 c0 -8 4 -12 9 -9 4 3 8 9 8 15 0 5 -4 9 -8 9 -5 0 -9 -7
-9 -15z"/>
<path d="M5650 3052 c0 -5 7 -9 15 -9 8 0 12 4 9 9 -3 4 -9 8 -15 8 -5 0 -9
-4 -9 -8z"/>
<path d="M5590 3030 c0 -5 5 -10 10 -10 6 0 10 5 10 10 0 6 -4 10 -10 10 -5 0
-10 -4 -10 -10z"/>
<path d="M5500 3015 c-7 -9 -21 -13 -30 -10 -9 3 -23 -1 -29 -9 -10 -12 -8
-14 12 -12 13 2 29 6 35 10 7 4 12 2 12 -5 0 -13 29 20 30 34 0 12 -17 8 -30
-8z"/>
<path d="M5536 3003 c-6 -14 -5 -15 5 -6 7 7 10 15 7 18 -3 3 -9 -2 -12 -12z"/>
<path d="M5560 2990 c-8 -5 -10 -10 -5 -10 6 0 17 5 25 10 8 5 11 10 5 10 -5
0 -17 -5 -25 -10z"/>
<path d="M5405 2930 c-3 -6 1 -7 9 -4 18 7 21 14 7 14 -6 0 -13 -4 -16 -10z"/>
<path d="M5283 2918 c-4 -7 -1 -8 7 -3 9 5 11 1 6 -16 -3 -13 -3 -18 0 -11 3
6 12 12 21 12 8 0 13 5 11 12 -5 15 -36 19 -45 6z"/>
<path d="M5065 2883 c-9 -13 -11 -23 -5 -23 5 0 10 5 10 10 0 6 7 10 15 10 8
0 15 4 15 10 0 5 7 7 15 4 8 -4 15 -2 15 3 0 19 -51 8 -65 -14z"/>
<path d="M5034 2884 c-18 -14 -18 -15 4 -4 12 6 22 13 22 15 0 8 -5 6 -26 -11z"/>
<path d="M5151 2891 c-9 -6 -7 -10 9 -14 14 -4 19 -10 14 -18 -4 -8 -3 -10 5
-5 9 6 9 12 -1 24 -7 10 -13 18 -13 19 0 1 -6 -2 -14 -6z"/>
<path d="M5266 2873 c-6 -14 -5 -15 5 -6 7 7 10 15 7 18 -3 3 -9 -2 -12 -12z"/>
<path d="M5113 2865 c0 -8 4 -12 9 -9 4 3 8 9 8 15 0 5 -4 9 -8 9 -5 0 -9 -7
-9 -15z"/>
<path d="M1114 2848 c-3 -5 -2 -8 3 -7 20 3 34 -2 28 -11 -4 -6 1 -7 11 -3 11
4 13 8 6 11 -7 2 -10 7 -8 11 3 4 -4 7 -15 7 -11 0 -23 -4 -25 -8z"/>
<path d="M4951 2840 c-13 -11 -19 -20 -13 -20 5 0 15 7 22 15 7 8 16 12 21 9
5 -3 9 0 9 5 0 16 -12 13 -39 -9z"/>
<path d="M1075 2821 c-3 -5 -2 -12 3 -15 5 -3 9 1 9 9 0 17 -3 19 -12 6z"/>
<path d="M1115 2821 c-3 -5 -2 -12 3 -15 5 -3 9 1 9 9 0 17 -3 19 -12 6z"/>
<path d="M4856 2811 c-3 -4 4 -7 14 -6 27 2 33 10 10 12 -11 1 -22 -2 -24 -6z"/>
<path d="M4786 2795 c-11 -8 -15 -15 -9 -15 6 0 16 7 23 15 16 19 11 19 -14 0z"/>
<path d="M1186 2792 c-2 -4 5 -19 16 -32 l20 -25 -16 28 c-20 34 -7 35 22 3
13 -16 17 -26 9 -29 -6 -2 -3 -6 7 -10 10 -4 15 -3 11 3 -3 6 -1 10 4 10 6 0
11 -5 11 -12 0 -6 3 -8 7 -5 6 7 -65 76 -79 77 -4 0 -9 -4 -12 -8z"/>
<path d="M4730 2790 c0 -5 5 -10 11 -10 5 0 7 5 4 10 -3 6 -8 10 -11 10 -2 0
-4 -4 -4 -10z"/>
<path d="M4676 2763 c-6 -14 -5 -15 5 -6 7 7 10 15 7 18 -3 3 -9 -2 -12 -12z"/>
<path d="M1175 2750 c3 -5 8 -10 11 -10 2 0 4 5 4 10 0 6 -5 10 -11 10 -5 0
-7 -4 -4 -10z"/>
<path d="M1282 2714 c-14 -16 -5 -18 17 -5 7 5 9 11 5 14 -5 3 -15 -1 -22 -9z"/>
<path d="M1216 2712 c-3 -5 1 -9 9 -9 8 0 12 4 9 9 -3 4 -7 8 -9 8 -2 0 -6 -4
-9 -8z"/>
<path d="M4525 2690 c3 -5 8 -10 11 -10 2 0 4 5 4 10 0 6 -5 10 -11 10 -5 0
-7 -4 -4 -10z"/>
<path d="M1250 2669 c0 -5 5 -7 10 -4 6 3 10 8 10 11 0 2 -4 4 -10 4 -5 0 -10
-5 -10 -11z"/>
<path d="M4513 2655 c-3 -9 -3 -18 -1 -21 3 -3 8 4 11 16 6 23 -1 27 -10 5z"/>
<path d="M1270 2570 c0 -5 5 -10 11 -10 5 0 7 5 4 10 -3 6 -8 10 -11 10 -2 0
-4 -4 -4 -10z"/>
<path d="M1230 2556 c0 -2 7 -7 16 -10 8 -3 12 -2 9 4 -6 10 -25 14 -25 6z"/>
<path d="M1225 2510 c-3 -6 1 -7 9 -4 18 7 21 14 7 14 -6 0 -13 -4 -16 -10z"/>
<path d="M4490 2471 c0 -6 4 -13 10 -16 6 -3 7 1 4 9 -7 18 -14 21 -14 7z"/>
<path d="M4466 2433 c-6 -14 -5 -15 5 -6 7 7 10 15 7 18 -3 3 -9 -2 -12 -12z"/>
<path d="M4467 2385 c6 -17 5 -18 -9 -7 -13 10 -18 9 -29 -5 -13 -16 -12 -17
3 -5 10 8 19 9 22 3 7 -10 32 -9 41 2 3 4 2 5 -2 2 -3 -3 -12 3 -20 13 -12 16
-13 15 -6 -3z"/>
<path d="M4471 2323 c-1 -18 13 -23 29 -11 12 8 12 9 -2 5 -9 -3 -19 -1 -22 6
-3 9 -5 9 -5 0z"/>
<path d="M4501 2284 c0 -11 3 -14 6 -6 3 7 2 16 -1 19 -3 4 -6 -2 -5 -13z"/>
<path d="M1034 2261 c12 -19 -32 -81 -52 -74 -9 3 -14 3 -11 -1 16 -18 49 -14
61 7 16 30 19 65 6 73 -7 4 -8 2 -4 -5z"/>
<path d="M946 2212 c-3 -5 1 -9 9 -9 8 0 12 4 9 9 -3 4 -7 8 -9 8 -2 0 -6 -4
-9 -8z"/>
<path d="M4576 2188 c3 -5 10 -6 15 -3 13 9 11 12 -6 12 -8 0 -12 -4 -9 -9z"/>
<path d="M937 2169 c7 -7 15 -10 18 -7 3 3 -2 9 -12 12 -14 6 -15 5 -6 -5z"/>
<path d="M4602 2091 c-11 -7 -11 -9 1 -14 16 -6 27 0 27 15 0 10 -11 10 -28
-1z"/>
<path d="M4646 2092 c-3 -5 1 -9 9 -9 8 0 12 4 9 9 -3 4 -7 8 -9 8 -2 0 -6 -4
-9 -8z"/>
<path d="M855 2061 c-3 -5 -2 -12 3 -15 5 -3 9 1 9 9 0 17 -3 19 -12 6z"/>
<path d="M4620 2060 c-11 -7 -11 -10 -2 -10 7 0 11 -3 9 -7 -3 -5 5 -8 18 -8
22 0 27 17 10 32 -4 4 -5 2 -1 -4 4 -8 1 -13 -9 -13 -9 0 -13 5 -10 10 8 12 4
12 -15 0z"/>
<path d="M5035 2040 c-3 -5 -1 -10 4 -10 6 0 11 5 11 10 0 6 -2 10 -4 10 -3 0
-8 -4 -11 -10z"/>
<path d="M4670 2005 c0 -8 2 -15 4 -15 2 0 6 7 10 15 3 8 1 15 -4 15 -6 0 -10
-7 -10 -15z"/>
<path d="M5290 2010 c0 -5 5 -10 11 -10 5 0 7 5 4 10 -3 6 -8 10 -11 10 -2 0
-4 -4 -4 -10z"/>
<path d="M4690 1996 c0 -3 9 -10 20 -16 11 -6 20 -8 20 -6 0 3 -9 10 -20 16
-11 6 -20 8 -20 6z"/>
<path d="M4750 1966 c7 -7 13 -7 20 0 6 6 3 10 -10 10 -13 0 -16 -4 -10 -10z"/>
<path d="M794 1878 c0 -10 1 -18 3 -18 1 0 7 8 12 18 7 13 6 19 -2 19 -7 0
-13 -9 -13 -19z"/>
<path d="M821 1868 c-18 -28 -4 -36 20 -11 16 16 18 21 7 26 -8 3 -20 -4 -27
-15z"/>
<path d="M5513 1875 c0 -8 4 -12 9 -9 5 3 6 10 3 15 -9 13 -12 11 -12 -6z"/>
<path d="M794 1811 c0 -11 4 -17 8 -15 10 7 10 34 0 34 -4 0 -8 -9 -8 -19z"/>
<path d="M5605 1810 c-3 -6 1 -7 9 -4 18 7 21 14 7 14 -6 0 -13 -4 -16 -10z"/>
<path d="M5570 1789 c0 -5 5 -7 10 -4 6 3 10 8 10 11 0 2 -4 4 -10 4 -5 0 -10
-5 -10 -11z"/>
<path d="M5581 1762 c-7 -13 -6 -23 1 -30 7 -7 9 -12 5 -12 -4 0 -2 -10 5 -22
7 -13 13 -26 14 -30 1 -5 3 -11 4 -15 1 -5 2 -11 2 -14 -1 -3 10 -11 23 -17
18 -8 26 -8 31 0 5 7 2 8 -6 3 -10 -6 -12 -4 -7 8 4 10 -4 28 -19 47 -14 16
-22 30 -17 30 4 0 -1 7 -11 15 -11 8 -14 15 -8 15 7 0 12 5 12 11 0 5 -4 7
-10 4 -5 -3 -10 -2 -10 4 0 5 6 12 13 14 9 4 9 6 0 6 -7 1 -17 -7 -22 -17z
m64 -120 c-2 -3 -11 3 -20 12 -9 9 -13 16 -9 16 3 0 3 6 -2 13 -5 7 1 2 13
-12 12 -14 20 -27 18 -29z"/>
<path d="M813 1723 c0 -8 6 -9 19 -2 10 5 18 11 18 12 0 2 -8 3 -18 3 -10 0
-19 -6 -19 -13z"/>
<path d="M5630 1710 c0 -4 7 -7 15 -6 23 3 26 12 5 13 -11 1 -20 -2 -20 -7z"/>
<path d="M800 1690 c-9 -6 -10 -10 -3 -10 6 0 15 5 18 10 8 12 4 12 -15 0z"/>
<path d="M874 1655 c-5 -11 -11 -12 -27 -4 -20 9 -20 9 -5 -4 10 -8 14 -18 10
-22 -4 -5 -1 -5 5 -1 14 8 37 46 28 46 -3 0 -8 -7 -11 -15z"/>
<path d="M5670 1599 c0 -5 5 -7 10 -4 6 3 10 8 10 11 0 2 -4 4 -10 4 -5 0 -10
-5 -10 -11z"/>
<path d="M849 1573 c-13 -16 -12 -17 4 -4 9 7 17 15 17 17 0 8 -8 3 -21 -13z"/>
<path d="M886 1532 c-3 -5 1 -9 9 -9 8 0 12 4 9 9 -3 4 -7 8 -9 8 -2 0 -6 -4
-9 -8z"/>
<path d="M5706 1487 c3 -10 9 -15 12 -12 3 3 0 11 -7 18 -10 9 -11 8 -5 -6z"/>
<path d="M1906 1482 c-4 -4 -13 -7 -19 -7 -14 0 -19 -43 -6 -50 4 -3 6 7 3 21
-4 23 -3 25 9 16 11 -10 17 -9 26 2 12 15 0 31 -13 18z"/>
<path d="M1787 1454 c4 -11 1 -15 -12 -12 -11 2 -19 -4 -20 -14 -3 -16 -1 -16
21 -1 24 15 33 43 14 43 -5 0 -7 -7 -3 -16z"/>
<path d="M2076 1452 c-3 -6 0 -13 6 -15 10 -4 10 -6 1 -6 -7 -1 -13 -5 -13
-11 0 -15 17 -12 23 3 7 18 -8 43 -17 29z"/>
<path d="M5693 1445 c0 -8 4 -12 9 -9 4 3 8 9 8 15 0 5 -4 9 -8 9 -5 0 -9 -7
-9 -15z"/>
<path d="M5726 1452 c-3 -5 1 -9 9 -9 8 0 12 4 9 9 -3 4 -7 8 -9 8 -2 0 -6 -4
-9 -8z"/>
<path d="M960 1436 c0 -2 7 -7 16 -10 8 -3 12 -2 9 4 -6 10 -25 14 -25 6z"/>
<path d="M2982 1413 c5 -7 14 -11 18 -8 5 3 11 -1 13 -7 4 -10 6 -10 6 -1 1 7
8 10 19 7 14 -5 14 -4 2 4 -8 6 -18 8 -22 6 -4 -3 -8 -1 -8 5 0 5 -9 9 -19 8
-15 -1 -17 -4 -9 -14z"/>
<path d="M5702 1422 c-9 -7 -8 -13 8 -27 11 -10 20 -13 20 -7 0 6 -6 13 -12
15 -10 4 -9 8 2 16 17 12 1 15 -18 3z"/>
<path d="M1786 1408 c3 -5 10 -6 15 -3 13 9 11 12 -6 12 -8 0 -12 -4 -9 -9z"/>
<path d="M2190 1413 c1 -13 24 -38 38 -41 8 -1 11 2 8 7 -3 5 1 12 10 15 9 4
14 9 11 13 -4 3 -13 0 -21 -6 -16 -14 -40 -6 -31 10 4 5 1 9 -4 9 -6 0 -11 -3
-11 -7z"/>
<path d="M950 1406 c0 -2 8 -10 18 -17 15 -13 16 -12 3 4 -13 16 -21 21 -21
13z"/>
<path d="M2896 1403 c-4 -5 -23 -8 -42 -8 -19 0 -34 -4 -34 -8 0 -4 0 -11 0
-16 0 -5 10 -11 23 -14 22 -6 22 -6 2 9 -19 14 -18 15 18 11 21 -2 35 -2 32 1
-2 3 0 11 6 19 12 14 8 18 -5 6z"/>
<path d="M2970 1390 c0 -5 5 -10 11 -10 5 0 7 5 4 10 -3 6 -8 10 -11 10 -2 0
-4 -4 -4 -10z"/>
<path d="M2131 1374 c0 -11 3 -14 6 -6 3 7 2 16 -1 19 -3 4 -6 -2 -5 -13z"/>
<path d="M2180 1381 c0 -6 4 -13 10 -16 6 -3 7 1 4 9 -7 18 -14 21 -14 7z"/>
<path d="M3175 1370 c-3 -5 -1 -10 4 -10 6 0 11 5 11 10 0 6 -2 10 -4 10 -3 0
-8 -4 -11 -10z"/>
<path d="M1665 1357 c-15 -12 -16 -15 -4 -22 8 -5 11 -5 7 0 -4 4 0 14 10 21
23 18 11 18 -13 1z"/>
<path d="M2216 1351 c8 -8 53 -7 48 1 -3 4 -16 7 -29 6 -13 -1 -22 -4 -19 -7z"/>
<path d="M2370 1351 c0 -4 10 -12 23 -20 19 -13 21 -12 10 1 -7 8 -11 17 -8
20 3 2 -2 5 -10 5 -8 0 -15 -3 -15 -6z"/>
<path d="M2630 1346 c0 -8 -6 -16 -12 -19 -7 -2 1 -4 18 -3 27 1 30 3 20 18
-13 22 -26 23 -26 4z"/>
<path d="M2890 1349 c0 -5 5 -7 10 -4 6 3 10 8 10 11 0 2 -4 4 -10 4 -5 0 -10
-5 -10 -11z"/>
<path d="M3276 1352 c-2 -4 -1 -14 4 -22 7 -11 9 -9 7 8 -1 24 -3 26 -11 14z"/>
<path d="M2766 1334 c-15 -14 -14 -34 1 -34 4 0 3 3 0 7 -4 3 0 15 10 25 20
22 11 24 -11 2z"/>
<path d="M2816 1337 c3 -10 9 -15 12 -12 3 3 0 11 -7 18 -10 9 -11 8 -5 -6z"/>
<path d="M1628 1333 c6 -2 9 -10 6 -15 -4 -7 -2 -8 5 -4 13 9 5 26 -12 25 -9
0 -8 -2 1 -6z"/>
<path d="M2696 1324 c-5 -13 -4 -14 7 -6 8 7 18 8 22 4 5 -4 5 -1 1 6 -10 17
-23 15 -30 -4z"/>
<path d="M2373 1315 c0 -8 4 -12 9 -9 5 3 6 10 3 15 -9 13 -12 11 -12 -6z"/>
<path d="M1114 1312 c4 -3 14 -7 22 -8 9 -1 13 0 10 4 -4 3 -14 7 -22 8 -9 1
-13 0 -10 -4z"/>
<path d="M1505 1311 c-3 -5 -2 -12 3 -15 5 -3 9 1 9 9 0 17 -3 19 -12 6z"/>
<path d="M2530 1310 c0 -5 5 -10 11 -10 5 0 7 5 4 10 -3 6 -8 10 -11 10 -2 0
-4 -4 -4 -10z"/>
<path d="M1324 1282 c-9 -15 -11 -21 -3 -14 7 6 17 12 22 12 4 0 5 -6 1 -12
-5 -9 -2 -9 9 1 16 12 22 8 18 -12 -1 -5 3 -6 9 -2 7 4 8 11 1 18 -5 7 -9 16
-8 21 4 21 -33 12 -49 -12z m46 12 c0 -8 -19 -13 -24 -6 -3 5 1 9 9 9 8 0 15
-2 15 -3z"/>
<path d="M5715 1230 c-3 -5 -1 -10 4 -10 6 0 11 5 11 10 0 6 -2 10 -4 10 -3 0
-8 -4 -11 -10z"/>
<path d="M3490 1196 c0 -2 7 -7 16 -10 8 -3 12 -2 9 4 -6 10 -25 14 -25 6z"/>
<path d="M5707 1189 c7 -7 15 -10 18 -7 3 3 -2 9 -12 12 -14 6 -15 5 -6 -5z"/>
<path d="M3521 1166 c-8 -10 -9 -16 -1 -21 6 -4 9 -1 8 7 -2 7 3 12 10 10 8
-1 11 2 7 8 -8 13 -10 13 -24 -4z"/>
<path d="M5637 1126 c-3 -8 0 -17 7 -19 10 -4 12 1 9 14 -6 23 -9 24 -16 5z"/>
<path d="M5583 1067 c-10 -13 -24 -22 -32 -19 -8 3 -11 0 -7 -6 5 -9 28 -9 65
-3 2 1 -2 7 -8 14 -19 24 1 27 21 4 l19 -22 -17 28 c-9 15 -18 27 -19 27 -2 0
-12 -10 -22 -23z"/>
<path d="M5590 991 c0 -6 4 -13 10 -16 6 -3 7 1 4 9 -7 18 -14 21 -14 7z"/>
<path d="M5432 918 c-17 -11 -29 -25 -26 -30 4 -7 10 -4 16 6 6 11 16 15 28
11 14 -5 18 -1 17 15 -1 11 -1 20 -2 19 0 0 -15 -10 -33 -21z"/>
<path d="M3650 909 c0 -5 5 -7 10 -4 6 3 10 8 10 11 0 2 -4 4 -10 4 -5 0 -10
-5 -10 -11z"/>
<path d="M5430 890 c0 -6 4 -9 9 -6 5 4 12 1 14 -4 3 -6 4 -5 3 2 -3 15 -26
23 -26 8z"/>
<path d="M5419 863 c0 -5 -2 -16 -4 -26 -2 -11 -1 -16 3 -13 8 8 14 46 7 46
-3 0 -5 -3 -6 -7z"/>
<path d="M3745 799 c-11 -16 -1 -19 13 -3 7 8 8 14 3 14 -5 0 -13 -5 -16 -11z"/>
<path d="M5314 736 c1 -8 5 -18 8 -22 4 -3 5 1 4 10 -1 8 -5 18 -8 22 -4 3 -5
-1 -4 -10z"/>
<path d="M3830 648 c0 -4 4 -8 9 -8 6 0 12 4 15 8 3 5 -1 9 -9 9 -8 0 -15 -4
-15 -9z"/>
<path d="M5140 653 c0 -7 -10 -9 -22 -5 -20 5 -21 3 -10 -10 15 -18 0 -34 -20
-22 -6 4 -8 3 -4 -4 3 -5 3 -12 -1 -15 -5 -2 -1 -2 7 1 8 2 20 5 27 5 7 0 10
4 7 9 -3 4 -1 8 4 8 11 0 25 30 17 38 -3 3 -5 1 -5 -5z"/>
<path d="M5156 633 c-6 -14 -5 -15 5 -6 7 7 10 15 7 18 -3 3 -9 -2 -12 -12z"/>
<path d="M3800 630 c-12 -7 -10 -9 7 -7 12 0 19 5 17 9 -6 10 -6 10 -24 -2z"/>
<path d="M5031 543 c-1 -17 16 -25 25 -12 4 7 3 9 -4 5 -5 -3 -13 0 -15 6 -4
9 -6 10 -6 1z"/>
<path d="M3966 442 c-4 -7 -4 -12 1 -12 4 0 1 -5 -7 -10 -13 -9 -13 -10 0 -11
8 -1 20 -3 25 -4 6 -2 15 -4 20 -5 6 -1 1 -5 -10 -10 -20 -8 -20 -9 1 -9 28
-1 35 -10 24 -32 -7 -12 -7 -20 0 -24 6 -4 10 -3 9 2 -3 18 2 33 11 33 5 0 7
-8 4 -17 -5 -15 -4 -15 4 -4 8 11 5 20 -11 35 -12 12 -32 34 -43 50 -14 19
-23 25 -28 18z"/>
<path d="M4820 400 c-34 -34 -35 -36 -16 -43 9 -4 13 -1 11 6 -3 7 2 21 10 31
13 17 17 17 32 5 14 -12 16 -12 8 0 -6 11 -4 13 8 8 23 -9 21 0 -3 13 -16 8
-25 5 -50 -20z"/>
<path d="M4769 378 c-7 -23 -5 -39 6 -48 10 -8 15 -8 20 0 4 6 4 14 1 17 -3 4
-6 1 -6 -6 0 -7 -4 -10 -9 -6 -6 3 -8 14 -6 25 2 11 2 20 -1 20 -2 0 -4 -1 -5
-2z"/>
<path d="M4039 318 c-5 -18 -6 -38 -1 -34 7 8 12 36 6 36 -2 0 -4 -1 -5 -2z"/>
<path d="M4140 292 c0 -12 19 -26 26 -19 2 2 -2 10 -11 17 -9 8 -15 8 -15 2z"/>
<path d="M4637 273 c-9 -8 12 -33 27 -33 6 0 3 5 -7 11 -9 6 -15 14 -12 20 7
10 2 12 -8 2z"/>
<path d="M4175 210 c3 -5 8 -10 11 -10 2 0 4 5 4 10 0 6 -5 10 -11 10 -5 0 -7
-4 -4 -10z"/>
<path d="M4206 172 c-3 -5 1 -9 9 -9 8 0 12 4 9 9 -3 4 -7 8 -9 8 -2 0 -6 -4
-9 -8z"/>
<path d="M4548 173 c7 -3 16 -2 19 1 4 3 -2 6 -13 5 -11 0 -14 -3 -6 -6z"/>
<path d="M4350 150 c0 -5 5 -10 11 -10 5 0 7 5 4 10 -3 6 -8 10 -11 10 -2 0
-4 -4 -4 -10z"/>
<path d="M4476 152 c-3 -5 1 -9 9 -9 8 0 12 4 9 9 -3 4 -7 8 -9 8 -2 0 -6 -4
-9 -8z"/>
</g>
</svg>
